<svg xmlns="http://www.w3.org/2000/svg" viewBox="0 0 457.62 103.69"><title>arrow-line</title><path d="M367.54,264.52v33.7l25.75-15.73v19.3l84.87-51.85-84.87-51.85v19.3l-25.75-15.73v33.7l-61-37.27v19.3l-25.75-15.73v33.7l-61-37.27v19.3L194,201.66v33.7l-61-37.27v19.3l-25.75-15.73v33.7l-61-37.27v19.3L20.54,201.66v96.56l25.75-15.73v19.3l61-37.27v33.7L133,282.49v19.3l61-37.27v33.7l25.75-15.73v19.3l61-37.27v33.7l25.75-15.73v19.3Zm29.75-59.3,73.2,44.72-73.2,44.71v-14.6l49.29-30.11-49.29-30.11Zm-347,89.43v-14.6l49.29-30.11L50.29,219.83V205.22l57,34.82v19.79Zm86.75,0v-14.6l49.29-30.11L137,219.83V205.22L194,240v19.79Zm86.75,0v-14.6l49.29-30.11-49.29-30.11V205.22l57,34.82v19.79Zm136-44.71-49.29-30.11V205.22l57,34.82v19.79l-57,34.82v-14.6Z" transform="translate(-20.54 -198.09)"/></svg>