<svg xmlns="http://www.w3.org/2000/svg" viewBox="0 0 441.77 272.98" preserveAspectRatio="none" width="100%" height="100%"><title>bear-icon</title><path d="M94,197.24A5.44,5.44,0,0,1,90,200c-1.52.35-4.57,4.54-4.58,6.13,0,1.84-.25,3.49-2.26,4.29a2.74,2.74,0,0,0-1.47,1.83c-.44,1.42-.66,2.83-2.64,3-.78.05-.51,1.07-.6,1.69-.22,1.43-.19,3-1.91,3.62-.56.21-.66.74-.68,1.27a8,8,0,0,1,0,1.09c-.16,1.27.12,2.9-1.34,3.44-1.3.48-1.43-1.39-2.62-1.94-.79,1.79-1.23,3.94-3.35,4.7-2.82,1-3.77,3.27-4.24,6-.16.86-.79,1.49-1.77,1-1.26-.62-1.46.07-1.69,1.07-.44,1.86-.79,3.9-3.59,3.12a.92.92,0,0,0-1,.69c-.57,1.84-2.54,2.81-2.9,4.81-.13.76-.86,1.12-1.58,1.39-1.1.41-1.11,1.44-1.23,2.36s.69,1.35,1.42,1.68c3.84,1.73,8,2.25,12.07,2.88A26.68,26.68,0,0,1,72.33,257c2.22,1.17,3.59,5.87,2.79,8.25A2.55,2.55,0,0,1,74,266.8c-2.51,1.25-4.79,3-7.88,2.87-5-.16-9.91.21-14.85-.49a11.52,11.52,0,0,0-4.14.06c-6.12,1.45-12,0-17.95-1.13a36,36,0,0,0-6.29-.73c-3.89-.08-7.3-1.88-10.84-3.16a70.23,70.23,0,0,0-6.73-2.59,6.7,6.7,0,0,1-5.28-7.24,11.39,11.39,0,0,1,.58-3.66c3.12-7.7,2.52-15.89,3.25-23.9,1-11.26.75-22.58,1.39-33.84a104.42,104.42,0,0,1,1.82-16.26,11.12,11.12,0,0,0,.28-2.82c-.44-9.08,1.14-18,2-27,.93-9.21,1.73-18.46,3.84-27.46,2.48-10.86,5.3-21.57,10.62-31.43a6,6,0,0,0,.46-1c3.84-12.13,12.44-21.3,19.55-31.39a17.35,17.35,0,0,1,4.54-4.42c6.56-4.38,12.2-10,18.49-14.63,12.48-9.3,26.32-15.51,42.41-15.34,7.57.08,15.1,1,22.69.81,5.05-.09,9.94-1.55,15-1.37a36.68,36.68,0,0,1,6.27.69,4.77,4.77,0,0,0,2.8.09c3.15-1.45,6.11-.23,9.12.37,1.88.38,3.46-.9,5.29-.93,5.94-.13,11.83-.9,17.83-.43,4.76.37,9.57-.12,14-2.88,7.5-4.73,14.71-10.09,23-13.4C229.58,2.47,234,.58,239,1c2.56.18,5.2-.51,7.8-.81,6.93-.82,13.15,2.08,19.66,3.58,5.84,1.34,10.38,4.9,15.05,8.19a26.14,26.14,0,0,0,9,3.8A37.9,37.9,0,0,1,300,19.35c6.14,3.47,12.43,6.71,18.72,9.86,7.92,4,16.21,7.69,25.53,7.23a9,9,0,0,1,4.25.75c2,1,3.09.25,4.26-1.39,2.19-3.09,5.4-4.5,9.09-5.06a37.41,37.41,0,0,1,16,.71c5.53,1.57,7.88,5.93,9.05,10.84,1.38,5.86,2.09,11.88,3.06,17.83a3.46,3.46,0,0,0,.91,1.89c4.53,4.95,9.32,9.69,13.4,15,3.52,4.55,7,9.12,10.75,13.48,3.13,3.63,4,8,3.37,12.71-.37,2.89-.45,5.81-.7,8.71a3.07,3.07,0,0,0,.79,2.2c1.22,1.63,2.35,3.35,3.69,4.88,4,4.53,6.37,10.07,9.83,14.93,1.32,1.87,2.48,3.75,4.52,4.93.75.43,1.36,1.1,2.09,1.59,5.19,3.47,3.14,8.67-.46,11.19a29.63,29.63,0,0,1-7.75,4.37c-2.46.8-4,3-5.36,5.25-.83,1.37-1.67,2.74-2.41,4.16-2.2,4.21-5.5,6.21-10.32,5.37a2.55,2.55,0,0,0-1.28.16c-7,2.7-13.8.54-20.6-.8-2.66-.53-4.46-3-7-4-2-.84-3.29-.25-4.6,1.21s-2.5,3.66-4.82,4.09c-2.57.48-5.27,1.37-7.52-.93a1.54,1.54,0,0,0-1.77-.47c-1.65.67-2.92.13-4.12-1.07a11.59,11.59,0,0,0-2.13-1.48,3.69,3.69,0,0,1-1.62-2c-1.12-3-2.37-6-3.57-9-.34-.85-.92-1.43-1.42-.26-1.27,3-3.86,4.89-5.67,7.42a12.6,12.6,0,0,0-1.71,2.78,2.72,2.72,0,0,1-2.63,1.95c-1.49,0-2.43,1.28-3.84,1.48-.83.12-.41.8-.14,1.19,4,5.92,5.73,13,9.9,18.92,6.35,9,11,19,16.68,28.48a15.45,15.45,0,0,0,4.33,4.81,81.64,81.64,0,0,1,6.63,5.7,28.81,28.81,0,0,0,5.89,4.14,21.75,21.75,0,0,1,6.32,4.6c2.84,3.13,6.39,5.28,9.78,7.68,1.37,1,2.63,2.08,4,3.09,3.47,2.63,4.49,6.31,4.37,10.42-.08,2.68-2.77,5.27-5.4,4.92-5-.64-10,0-14.89-1.76a18.09,18.09,0,0,1-4.83-2.06c-4.39-3.18-9.71-4.16-14.66-6a7.85,7.85,0,0,0-3.91,0,22.66,22.66,0,0,1-12.82-1.67c-3.06-1.35-6.27-2.4-9-4.38a17.92,17.92,0,0,1-4.48-4.42c-2.22-3.22-5.39-4.73-9.25-5.5-6.16-1.23-12.67-1.4-18.1-5.23-.7-.5-1.69-.4-2.42-.65-2.48-.83-5.5-.83-7.4-2.13a19.15,19.15,0,0,0-6.66-2.69c-1.35-.33-1.56-1.61-2-2.67-.7-1.65-.83-3.68-3.6-3.45-1.24.11-1.74-1.57-2.36-2.64a36.55,36.55,0,0,0-5.85-7.85c-2.91-2.93-6.19-5.53-8.59-9-.57-.82-1.15-1.82-2.35-.53-.72.77-1.39.32-1.5-.61a5.48,5.48,0,0,0-1.42-2.9c-1.25-1.51-2.49-1.32-3.32.47a14.52,14.52,0,0,0-.67,3.64A117.17,117.17,0,0,1,255.94,217a39.81,39.81,0,0,0-2.25,17.31,32,32,0,0,0,3,11.14c1,1.87,3,2.54,4.69,3.42,2.91,1.51,5.93,2.79,8.91,4.16a23.18,23.18,0,0,0,9.79,1.94,8.37,8.37,0,0,1,8,8.68,5.65,5.65,0,0,1,0,.59c-.35,2.79-.94,5.27-4.52,5.6-1.24.11-2.41,1-3.6,1.55-5.43,2.52-10.93,1.72-16.45.36-4.31-1.07-8.56-2.52-12.94-3.12-3.71-.51-7.55-.1-11.33,0a38.13,38.13,0,0,1-13.36-2.5c-4.92-1.66-6.55-4.68-7.3-9.14a16.77,16.77,0,0,0-6.08-10.8c-.81-.64-.89-1.66-1.41-2.43-4.6-6.8-8.5-14-12.74-21-1.16-1.92-3-3.35-3.72-5.61-2.27-7.26-5.15-14.32-6.15-22a105.49,105.49,0,0,0-2.6-13.06,18.77,18.77,0,0,1-.07-8c.11-.64.48-1.46-.06-1.87-.71-.56-1,.52-1.57.74-3.4,1.33-3.2,4.23-3.11,7.09,0,.5.2,1.19,0,1.48-1.52,1.79-.63,3.6-.1,5.35a79.89,79.89,0,0,1,3.42,21.65,165.19,165.19,0,0,0,1,19c.22,1.59,1.13,3,1.26,4.62.19,2.31.68,4.6.92,6.92.68,6.44,5.35,9.68,10.39,12.6,2.87,1.65,6,2.52,9.05,3.79a5.43,5.43,0,0,1,3.5,5.12c.07,2.06-1.35,3.45-3,4.51a17.75,17.75,0,0,1-14.25,2.16,54.12,54.12,0,0,0-19.77-.83,5.3,5.3,0,0,1-1.73.1,39.1,39.1,0,0,0-10.25-.33c-5.52.39-10.73-1-15.89-2.39-4.42-1.17-6.22-4.94-6.34-9.23-.09-3.22-1.77-5.64-3.1-8.28-.25-.5-.64-1.35-1.46-1-1.82.73-2.34-.54-2.9-1.75a39.37,39.37,0,0,1-1.51-3.64,3.46,3.46,0,0,0-3-2.55,2.7,2.7,0,0,1-2.41-2.19c-1-3.2-2.19-6.18-5.47-7.78-.78-.39-1-1.43-1.36-2.2-.8-1.59-.78-3.75-3.08-4.31-.31-.07-.54-.67-.7-1.06-1.11-2.67-2.63-4.84-5.82-5.22a1.57,1.57,0,0,1-1-.78c-.54-1-1-1.77-2.47-1.31-.84.27-1.38-.71-1.63-1.49a18.5,18.5,0,0,1-.9-3.59c-.28-3-3.09-3.82-4.58-5.76-.44-.58-1,0-1.28.64s-.51,1.5-1.48,1.26S94,202.4,94,201.58C94,200.12,94,198.68,94,197.24Z" transform="translate(-0.01 0)"/></svg>