<?xml version="1.0" encoding="utf-8"?>
<!-- Generator: Adobe Illustrator 22.1.0, SVG Export Plug-In . SVG Version: 6.00 Build 0)  -->
<svg version="1.1" id="Layer_1" xmlns="http://www.w3.org/2000/svg" xmlns:xlink="http://www.w3.org/1999/xlink" x="0px" y="0px" 
	 viewBox="0 0 441.7 273" width="100%" height="100%" preserveAspectRatio="xMidYMid meet" style="enable-background:new 0 0 441.7 273;" xml:space="preserve">
<style type="text/css">
	.st0{fill:#F1F2E1;}
</style>
<title>bear-icon</title>
<path class="st0" d="M94,197.2c-0.8,1.5-2.3,2.5-4,2.8c-1.5,0.4-4.6,4.5-4.6,6.1c0,1.8-0.3,3.5-2.3,4.3c-0.7,0.4-1.3,1-1.5,1.8
	c-0.4,1.4-0.7,2.8-2.6,3c-0.8,0-0.5,1.1-0.6,1.7c-0.2,1.4-0.2,3-1.9,3.6c-0.6,0.2-0.7,0.7-0.7,1.3c0,0.4,0,0.7-0.1,1.1
	c-0.2,1.3,0.1,2.9-1.3,3.4c-1.3,0.5-1.4-1.4-2.6-1.9c-0.8,1.8-1.2,3.9-3.3,4.7c-2.8,1-3.8,3.3-4.2,6c-0.2,0.9-0.8,1.5-1.8,1
	c-1.3-0.6-1.5,0.1-1.7,1.1c-0.4,1.9-0.8,3.9-3.6,3.1c-0.5-0.1-0.9,0.2-1,0.7c-0.6,1.8-2.5,2.8-2.9,4.8c-0.1,0.8-0.9,1.1-1.6,1.4
	c-1.1,0.4-1.1,1.4-1.2,2.4s0.7,1.4,1.4,1.7c3.8,1.7,8,2.3,12.1,2.9c2.9,0.5,5.8,1.4,8.4,2.9c2.2,1.2,3.6,5.9,2.8,8.3
	c-0.1,0.6-0.5,1.2-1.1,1.6c-2.5,1.3-4.8,3-7.9,2.9c-5-0.2-9.9,0.2-14.8-0.5c-1.4-0.2-2.8-0.2-4.1,0.1c-6.1,1.5-12,0-18-1.1
	c-2.1-0.4-4.2-0.7-6.3-0.7c-3.9-0.1-7.3-1.9-10.8-3.2c-2.3-0.8-4.4-2-6.7-2.6c-3.4-0.7-5.6-3.8-5.3-7.2c0-1.2,0.2-2.5,0.6-3.7
	c3.1-7.7,2.5-15.9,3.3-23.9c1-11.3,0.8-22.6,1.4-33.8c0.2-5.5,0.8-10.9,1.8-16.3c0.2-0.9,0.3-1.9,0.3-2.8c-0.4-9.1,1.1-18,2-27
	c0.9-9.2,1.7-18.5,3.8-27.5c2.5-10.9,5.3-21.6,10.6-31.4c0.2-0.3,0.3-0.7,0.5-1C28.3,75.2,36.9,66,44,55.9c1.2-1.7,2.8-3.2,4.5-4.4
	c6.6-4.4,12.2-9.9,18.5-14.6c12.5-9.3,26.3-15.5,42.4-15.3c7.6,0.1,15.1,1,22.7,0.8c5.1-0.1,9.9-1.6,15-1.4c2.1,0,4.2,0.3,6.3,0.7
	c0.9,0.3,1.9,0.3,2.8,0.1c3.1-1.4,6.1-0.2,9.1,0.4c1.9,0.4,3.5-0.9,5.3-0.9c5.9-0.1,11.8-0.9,17.8-0.4c4.8,0.4,9.6-0.1,14-2.9
	c7.5-4.7,14.7-10.1,23-13.4c4.3-1.7,8.7-3.6,13.7-3.2c2.6,0.2,5.2-0.5,7.8-0.8c6.9-0.8,13.1,2.1,19.7,3.6c5.8,1.3,10.4,4.9,15,8.2
	c2.7,1.8,5.8,3.1,9,3.8c3.3,0.8,6.5,2,9.5,3.6c6.1,3.5,12.4,6.7,18.7,9.9c7.9,4,16.2,7.7,25.5,7.2c1.5-0.1,2.9,0.2,4.3,0.8
	c2,0.9,3.1,0.3,4.3-1.4c2.2-3.1,5.4-4.5,9.1-5.1c5.3-0.9,10.8-0.7,16,0.7c5.5,1.6,7.9,5.9,9,10.8c1.4,5.9,2.1,11.9,3.1,17.8
	c0.1,0.7,0.4,1.4,0.9,1.9c4.5,4.9,9.3,9.7,13.4,15c3.5,4.6,7,9.1,10.8,13.5c3.1,3.6,4,8,3.4,12.7c-0.4,2.9-0.5,5.8-0.7,8.7
	c0,0.8,0.2,1.6,0.8,2.2c1.2,1.6,2.4,3.4,3.7,4.9c4,4.5,6.4,10.1,9.8,14.9c1.3,1.9,2.5,3.8,4.5,4.9c0.8,0.4,1.4,1.1,2.1,1.6
	c5.2,3.5,3.1,8.7-0.5,11.2c-2.3,1.8-5,3.3-7.8,4.4c-2.5,0.8-4,3-5.4,5.3c-0.8,1.4-1.7,2.7-2.4,4.2c-2.2,4.2-5.5,6.2-10.3,5.4
	c-0.4-0.1-0.9,0-1.3,0.2c-7,2.7-13.8,0.5-20.6-0.8c-2.7-0.5-4.5-3-7-4c-2-0.8-3.3-0.3-4.6,1.2s-2.5,3.7-4.8,4.1
	c-2.6,0.5-5.3,1.4-7.5-0.9c-0.4-0.5-1.1-0.7-1.8-0.5c-1.6,0.7-2.9,0.1-4.1-1.1c-0.7-0.6-1.4-1.1-2.1-1.5c-0.8-0.5-1.3-1.2-1.6-2
	c-1.1-3-2.4-6-3.6-9c-0.3-0.9-0.9-1.4-1.4-0.3c-1.3,3-3.9,4.9-5.7,7.4c-0.7,0.9-1.3,1.8-1.7,2.8c-0.3,1.2-1.4,2-2.6,2
	c-1.5,0-2.4,1.3-3.8,1.5c-0.8,0.1-0.4,0.8-0.1,1.2c4,5.9,5.7,13,9.9,18.9c6.4,9,11,19,16.7,28.5c1.1,1.9,2.6,3.5,4.3,4.8
	c2.3,1.8,4.5,3.7,6.6,5.7c1.8,1.6,3.8,3,5.9,4.1c2.4,1.1,4.5,2.7,6.3,4.6c2.8,3.1,6.4,5.3,9.8,7.7c1.4,1,2.6,2.1,4,3.1
	c3.5,2.6,4.5,6.3,4.4,10.4c-0.1,2.7-2.8,5.3-5.4,4.9c-5-0.6-10,0-14.9-1.8c-1.7-0.4-3.3-1.1-4.8-2.1c-4.4-3.2-9.7-4.2-14.7-6
	c-1.3-0.3-2.6-0.3-3.9,0c-4.3,0.7-8.8,0.1-12.8-1.7c-3.1-1.4-6.3-2.4-9-4.4c-1.7-1.2-3.3-2.7-4.5-4.4c-2.2-3.2-5.4-4.7-9.3-5.5
	c-6.2-1.2-12.7-1.4-18.1-5.2c-0.7-0.5-1.7-0.4-2.4-0.6c-2.5-0.8-5.5-0.8-7.4-2.1c-2-1.3-4.3-2.2-6.7-2.7c-1.4-0.3-1.6-1.6-2-2.7
	c-0.7-1.6-0.8-3.7-3.6-3.5c-1.2,0.1-1.7-1.6-2.4-2.6c-1.6-2.9-3.6-5.5-5.9-7.9c-2.9-2.9-6.2-5.5-8.6-9c-0.6-0.8-1.1-1.8-2.4-0.5
	c-0.7,0.8-1.4,0.3-1.5-0.6c-0.2-1.1-0.7-2.1-1.4-2.9c-1.3-1.5-2.5-1.3-3.3,0.5c-0.4,1.2-0.6,2.4-0.7,3.6c-1.1,5.1-2.6,10.2-4.4,15.1
	c-2,5.5-2.8,11.4-2.2,17.3c0.3,3.9,1.3,7.6,3,11.1c1,1.9,3,2.5,4.7,3.4c2.9,1.5,5.9,2.8,8.9,4.2c3.1,1.3,6.4,2,9.8,1.9
	c4.6,0.2,8.2,4.1,8,8.7c0,0.2,0,0.4,0,0.6c-0.4,2.8-0.9,5.3-4.5,5.6c-1.2,0.1-2.4,1-3.6,1.5c-5.4,2.5-10.9,1.7-16.5,0.4
	c-4.3-1.1-8.6-2.5-12.9-3.1c-3.7-0.5-7.5-0.1-11.3,0c-4.6,0-9.1-0.9-13.4-2.5c-4.9-1.7-6.6-4.7-7.3-9.1c-0.6-4.2-2.7-8.1-6.1-10.8
	c-0.8-0.6-0.9-1.7-1.4-2.4c-4.6-6.8-8.5-14-12.7-21c-1.2-1.9-3-3.4-3.7-5.6c-2.3-7.3-5.1-14.3-6.1-22c-0.6-4.4-1.5-8.8-2.6-13.1
	c-0.6-2.6-0.6-5.4-0.1-8c0.1-0.6,0.5-1.5-0.1-1.9c-0.7-0.6-1,0.5-1.6,0.7c-3.4,1.3-3.2,4.2-3.1,7.1c0,0.5,0.2,1.2-0.1,1.5
	c-1.5,1.8-0.6,3.6-0.1,5.4c2.1,7,3.3,14.3,3.4,21.6c0,6.3,0.3,12.7,1,19c0.2,1.6,1.1,3,1.3,4.6c0.2,2.3,0.7,4.6,0.9,6.9
	c0.7,6.4,5.4,9.7,10.4,12.6c2.9,1.6,6,2.5,9.1,3.8c2.1,0.8,3.5,2.9,3.5,5.1c0.1,2.1-1.4,3.5-3,4.5c-4.2,2.7-9.4,3.5-14.3,2.2
	c-6.5-1.5-13.2-1.8-19.8-0.8c-0.6,0.1-1.2,0.2-1.7,0.1c-3.4-0.6-6.8-0.7-10.3-0.3c-5.5,0.4-10.7-1-15.9-2.4
	c-4.4-1.2-6.2-4.9-6.3-9.2c-0.1-3.2-1.8-5.6-3.1-8.3c-0.3-0.5-0.6-1.4-1.5-1c-1.8,0.7-2.3-0.5-2.9-1.8s-1.1-2.4-1.5-3.6
	c-0.4-1.4-1.6-2.4-3-2.5c-1.2-0.1-2.2-1-2.4-2.2c-1-3.2-2.2-6.2-5.5-7.8c-0.8-0.4-1-1.4-1.4-2.2c-0.8-1.6-0.8-3.8-3.1-4.3
	c-0.3-0.1-0.5-0.7-0.7-1.1c-1.1-2.7-2.6-4.8-5.8-5.2c-0.4-0.1-0.8-0.4-1-0.8c-0.5-1-1-1.8-2.5-1.3c-0.8,0.3-1.4-0.7-1.6-1.5
	c-0.4-1.2-0.7-2.4-0.9-3.6c-0.3-3-3.1-3.8-4.6-5.8c-0.4-0.6-1,0-1.3,0.6s-0.5,1.5-1.5,1.3s-1.1-1.1-1.1-1.9
	C94,200.1,94,198.7,94,197.2z"/>
</svg>
