<svg xmlns="http://www.w3.org/2000/svg" viewBox="0 0 446.74 278.98">
  <title>bear-mask</title>
  <g id="Layer_2" data-name="Layer 2">
    <g id="Layer_1-2" data-name="Layer 1">
      <path id="bear-mask" d="M442.54,141a4.35,4.35,0,0,1-.7-.6,14.31,14.31,0,0,0-1.5-1.1,10.34,10.34,0,0,1-3.3-3.6l-.4-.6c-1.3-1.9-2.5-3.8-3.7-5.9a53.44,53.44,0,0,0-6.3-9.2,26.69,26.69,0,0,1-2.4-3.2,15.26,15.26,0,0,1-1.1-1.6l-.1-.2c-.1-.1-.1-.2-.1-.4.1-1.1.2-2.1.2-3.2a45.34,45.34,0,0,1,.5-5.3c.8-5.8-.5-10.7-4-14.7s-6.4-7.9-9.4-11.8L409,78a134.08,134.08,0,0,0-9.9-11.2c-1.2-1.3-2.5-2.6-3.7-4l-.3-.6c-.3-1.7-.5-3.3-.8-5-.6-4.3-1.3-8.7-2.3-13-1.6-6.9-5.2-11.1-10.8-12.7a40.57,40.57,0,0,0-17-.8c-4.9.7-8.4,2.7-10.8,6.1a2.7,2.7,0,0,1-.7.8.52.52,0,0,1-.4-.2h-.1a11.08,11.08,0,0,0-5.4-1c-8.8.4-16.8-3.2-24.3-7-5.2-2.6-12-6-18.6-9.8a40.36,40.36,0,0,0-10.2-3.8,24.09,24.09,0,0,1-8.1-3.4l-1.4-1c-4.3-3.1-8.8-6.2-14.5-7.6-1.7-.4-3.4-.9-5.2-1.4-4.9-1.4-9.9-2.9-15.4-2.2a21.66,21.66,0,0,0-2.5.4,19.47,19.47,0,0,1-4.8.4c-5.4-.4-10.1,1.5-14.3,3.1l-.6.2a105.25,105.25,0,0,0-18.3,10.3l-5.1,3.3c-3.4,2.1-7.4,2.9-12.5,2.5a97.71,97.71,0,0,0-12.1.1l-6,.3a15.94,15.94,0,0,0-3,.6,4.78,4.78,0,0,1-1.8.4,9.36,9.36,0,0,1-1.6-.4c-2.6-.6-5.6-1.3-8.8.1a1.67,1.67,0,0,1-1.2-.1l-.3-.1a37.13,37.13,0,0,0-6.7-.7,49.09,49.09,0,0,0-8.6.7,49.27,49.27,0,0,1-6.6.7c-4.2.1-8.5-.1-12.7-.4-3.2-.2-6.6-.4-9.9-.4-15-.1-29.4,5-43.9,15.8-2.8,2-5.5,4.3-8.1,6.5a114.59,114.59,0,0,1-10.3,8.1,21,21,0,0,0-5.2,5.1c-1.7,2.4-3.5,4.7-5.2,7-5.7,7.6-11.6,15.4-14.7,25a4.88,4.88,0,0,0-.3.7c-5.7,10.5-8.6,22-10.9,32a200.09,200.09,0,0,0-3.6,25.3l-.3,2.5c-.2,2.3-.5,4.7-.8,7.1-.8,6.6-1.6,13.4-1.2,20.3a17.85,17.85,0,0,1-.2,2.3,115.44,115.44,0,0,0-1.8,16.6c-.3,4.7-.4,9.5-.5,14.2-.2,6.4-.3,13.1-.9,19.6-.2,2.2-.3,4.4-.4,6.5-.2,5.8-.4,11.4-2.6,16.6l-.1.2a12.91,12.91,0,0,0-.7,4.3,9.17,9.17,0,0,0,7.1,9.8,56.36,56.36,0,0,1,6.4,2.5l.2.1,2.4.9c2.9,1.1,5.8,2.3,9.3,2.4a39.55,39.55,0,0,1,5.9.7l1.8.4c5.5,1.1,11.2,2.2,17.1.8a9.15,9.15,0,0,1,3.3,0,70.39,70.39,0,0,0,10.3.5h4.8c3.1.1,5.5-1.2,7.6-2.3.5-.3,1-.5,1.5-.8l.2-.1a5.08,5.08,0,0,0,2.2-3c1.1-3.4-.7-9.4-4-11.1a29,29,0,0,0-9.1-3.2l-1.1-.2a40,40,0,0,1-9.8-2.3,3.81,3.81,0,0,0,2.3-2.9,4,4,0,0,1,1-1.5,10.15,10.15,0,0,0,1.3-1.8,4.75,4.75,0,0,0,2.6-.6,5.7,5.7,0,0,0,2.4-3.6,3.29,3.29,0,0,0,1.7-.4,4,4,0,0,0,2-2.9c.5-2.8,1.3-3.6,2.6-4.1a6.66,6.66,0,0,0,3.4-2.8,3.36,3.36,0,0,0,2.6.1c2.7-1,2.8-3.6,2.9-4.9v-1.3a6.13,6.13,0,0,0,2.5-4.6.6.6,0,0,1,.1-.4,6,6,0,0,0,3.1-4l.2-.5c0-.1,0-.1.1-.1,3.6-1.5,3.7-5,3.7-6.4a9.67,9.67,0,0,1,2.8-3.8c.3-.1.6-.1.8-.2a4.05,4.05,0,0,0,3,3.8,3.32,3.32,0,0,0,3.3-.9l.3.3c1.3,1,1.8,1.5,1.8,2.3v.1a18,18,0,0,0,1,4,5.64,5.64,0,0,0,1.1,2,3.55,3.55,0,0,0,3.2,1.2,4.07,4.07,0,0,0,2.6,2l.3.1c1.7.2,2.8,1.2,3.8,3.7a3.55,3.55,0,0,0,2.4,2.5c.3.1.4.1.8,1.4.2.5.4,1.1.6,1.6l.2.4a5.35,5.35,0,0,0,2.3,3c2.2,1.1,3.1,3,4.1,6.2a5.21,5.21,0,0,0,4.6,4,1,1,0,0,1,.8.7l.1.2c.5,1.3,1,2.6,1.6,3.8v.1c1.1,2.4,2.7,3.5,4.6,3.3l.5,1c1.1,2,2,3.7,2,5.7.2,6,3.1,10.2,8.2,11.6,5.3,1.4,10.7,2.9,16.8,2.5a38.61,38.61,0,0,1,9.6.3h.1a9.66,9.66,0,0,0,2.4-.1,51.16,51.16,0,0,1,18.7.8,20.12,20.12,0,0,0,16.2-2.5c2.8-1.8,4.2-4,4.1-6.6a8,8,0,0,0-5-7.4c-1.1-.4-2.1-.8-3.1-1.2a55.47,55.47,0,0,1-5.6-2.4c-5.6-3.2-8.6-5.9-9.2-10.7-.1-1.1-.3-2.2-.4-3.3s-.4-2.4-.5-3.6a10.89,10.89,0,0,0-.8-3.1,7.49,7.49,0,0,1-.5-1.6,167.88,167.88,0,0,1-1-18.8,83.73,83.73,0,0,0-3.5-22.3c-.1-.2-.1-.5-.2-.7-.5-1.6-.5-1.9-.2-2.3l.2-.2c.1-.2.2-.3.3-.5l.1.3a92,92,0,0,1,2.5,12.7c.8,6,2.7,11.7,4.5,17.2.6,1.8,1.2,3.5,1.7,5.3a13.42,13.42,0,0,0,2.7,4.4,19.23,19.23,0,0,1,1.3,1.7c1.4,2.3,2.7,4.6,4.1,6.9,2.8,4.7,5.6,9.6,8.7,14.2.1.2.2.3.2.5a5.34,5.34,0,0,0,1.7,2.5,14.14,14.14,0,0,1,5.2,9.3c.7,4.2,2.3,8.9,8.9,11.1a43.67,43.67,0,0,0,14.3,2.7c1,0,1.9-.1,2.9-.1a42.77,42.77,0,0,1,8,.1,63.11,63.11,0,0,1,8.6,2c1.3.4,2.7.8,4,1.1a41.83,41.83,0,0,0,9.3,1.4,20.82,20.82,0,0,0,8.8-1.9l1.2-.6a7.74,7.74,0,0,1,1.6-.7c5.9-.5,6.5-5.4,6.8-7.8v-.9a11,11,0,0,0-10.4-11.2h-.2a19.89,19.89,0,0,1-8.7-1.7l-2.5-1.1c-2.1-.9-4.3-1.9-6.3-3a9.29,9.29,0,0,0-1-.5,5.52,5.52,0,0,1-2.6-1.9,30.24,30.24,0,0,1-2.7-10.2,37.23,37.23,0,0,1,2.1-16.2,123.63,123.63,0,0,0,4.4-15.5v-.4a8.81,8.81,0,0,1,.2-1.7,1.45,1.45,0,0,1,.2.7,3.59,3.59,0,0,0,2.3,3.1,2.87,2.87,0,0,0,2.4-.2,51.71,51.71,0,0,0,6,6.4c.8.8,1.7,1.6,2.5,2.4a36.48,36.48,0,0,1,5.5,7.4l.3.6c.6,1.1,1.8,3.5,4.4,3.3h.3c.1.3.3.6.4.9a4.18,4.18,0,0,0,.4,1c.1.1.1.3.2.5a5,5,0,0,0,3.5,3.7h.1a16.68,16.68,0,0,1,5.7,2.3,12.81,12.81,0,0,0,5.4,1.8c.9.2,1.8.4,2.6.6.4.1.9.2,1.4.3l.5.1c4.7,3.3,9.9,4.1,14.9,4.9,1.4.2,2.8.4,4.1.7,3.7.7,6,2.1,7.7,4.5a20.2,20.2,0,0,0,5.1,5,33.41,33.41,0,0,0,7.3,3.7c.7.3,1.5.6,2.2.9a25.74,25.74,0,0,0,14.5,1.9h.2a5.28,5.28,0,0,1,2.5,0c1.4.5,2.8,1,4.2,1.4,3.5,1.1,6.9,2.2,9.7,4.2l.2.1a21.43,21.43,0,0,0,5.4,2.3,35.65,35.65,0,0,0,10.3,1.5c1.7.1,3.4.1,5,.3a7.13,7.13,0,0,0,5.4-1.8,7.64,7.64,0,0,0,2.8-5.6c.2-5.6-1.6-9.6-5.4-12.5a23.07,23.07,0,0,0-1.9-1.4c-.6-.4-1.4-1.1-2.2-1.7l-2-1.4a42.62,42.62,0,0,1-7.4-5.9,25.19,25.19,0,0,0-7-5.1,28,28,0,0,1-5.3-3.7,76.81,76.81,0,0,0-6.9-5.9,12.86,12.86,0,0,1-3.6-4.1c-2.1-3.5-4-7.1-6-10.6-3.3-6.2-6.9-12.2-10.8-18.1a55,55,0,0,1-4.9-9.3c-1.2-2.7-2.5-5.3-3.9-7.9h0a3,3,0,0,1,.8-.4h0a5.17,5.17,0,0,0,4.9-3.5,7.43,7.43,0,0,1,1.3-2.1l.1-.1c.6-.8,1.3-1.6,2-2.4s1.3-1.4,1.9-2.2c.8,1.9,1.6,3.9,2.3,5.8a6.66,6.66,0,0,0,2.8,3.4,9.06,9.06,0,0,1,1.6,1.1,6.06,6.06,0,0,0,6.1,1.8c2.9,2.6,6.2,2,8.6,1.5l.8-.2c2.7-.5,4.3-2.5,5.5-4,.3-.3.5-.6.8-.9.9-.9,1.1-.9,1.8-.6a9.63,9.63,0,0,1,2.5,1.6,12.59,12.59,0,0,0,5,2.6l2.9.6c6.1,1.3,12.4,2.7,19.1.1,5.6.9,10.1-1.4,12.9-6.7a27.74,27.74,0,0,1,2.2-3.7l.2-.3c1.3-2.2,2.5-3.7,4-4.2h.1a31.67,31.67,0,0,0,8.4-4.7,10.12,10.12,0,0,0,4.6-8.2C446.64,145.18,445,142.48,442.54,141Z"/>
    </g>
  </g>
</svg>
