<svg xmlns="http://www.w3.org/2000/svg" viewBox="0 0 479 479"><title>Clock</title><polygon points="320.44 118.44 317.54 116.67 335.16 87.77 338.07 89.54 340.88 84.94 329.68 78.11 326.87 82.71 329.78 84.48 312.15 113.38 309.24 111.61 306.44 116.21 317.63 123.04 320.44 118.44"/><path d="M524.83,336.44l4.69-2.67-1.68-3,29.42-16.73,1.68,3,4.69-2.67-5.87-10.31,0,0-.37-.55-.29-.51,0,0-6.52-9.92-4.5,3,1.87,2.85-28.29,18.58-1.87-2.84-4.51,3,6.06,9.21Zm26.59-32.29,1.42,2.15,1.3,2.29L524.8,325.28,524,324l-.74-1.3Z" transform="translate(-161 -161)"/><path d="M544.66,385.56l-.27-3.39-5.37.42.87,11,.13,9.05-.56,11.05,5.38.27.17-3.4,33.81,1.71-.17,3.4,5.38.27.6-11.88h0v-.62l0-.6h0l-.16-10.68h0l-.06-.65v-.57h0l-.94-11.86-5.37.43.27,3.39Zm.77,18.7,0-1.51.08-1.54,33.74-.48,0,2.63-.13,2.61Zm33.68-12.49,0,2.66-33.75.47-.12-1.56,0-1.5,33.64-2.65Z" transform="translate(-161 -161)"/><path d="M561.14,478.63l-1.6,3-29.88-15.91,1.61-3-4.76-2.53-6.17,11.58,4.76,2.53,1.6-3,29.87,15.92-1.6,3,.24.12L554.12,492l-37-15.87-2.7,4,28.83,28.08-1.8,2.68,4.48,3,6.55-9.76-4.47-3-1.68,2.51q-13.54-13.37-20.61-18.4l.07-.1q8.13,5.14,24.88,12L549,499.65l4.47,3,6.89-10.25-.3-.2,5.89-11Z" transform="translate(-161 -161)"/><path d="M494.9,552.33l-25.61-31.11L465,523.55l12.71,38.19-2.82,1.55,2.59,4.73,10.31-5.66-2.6-4.72-2.65,1.45q-5.88-18.09-9.85-25.81l.11-.06q4.86,8.31,16.57,22.12l-2.65,1.46,2.6,4.72,10.82-5.94-2.59-4.72Z" transform="translate(-161 -161)"/><path d="M414.69,578.89l-8.59-39.37-4.84.14-6.12,39.78-2.08,0,0-.26-3.4-.26,2.54-33.75,3.39.25.41-5.37-13.08-1-.41,5.38,3.4.25-2.54,33.76-3.4-.26-.4,5.38,12.47.93v.36l11.75-.32-.15-5.39-3,.08q3-18.78,3-27.45h.11q.54,9.61,4.65,27.25l-3,.08.15,5.39,12.35-.34-.15-5.39Z" transform="translate(-161 -161)"/><path d="M329.34,520.45l-25.69,31-1.83-1,.15-.22-2.78-2,19.5-27.67,2.78,2,3.11-4.41-10.73-7.55-3.1,4.4,2.78,2L294,544.59l-2.78-2-3.1,4.41,10.23,7.21-.17.31,10.25,5.76,2.64-4.7-2.64-1.48q12.24-14.57,16.69-22l.1,0q-4.47,8.52-10,25.77l-2.64-1.48-2.64,4.7,10.77,6.05,2.64-4.7L320.71,561l12.85-38.19Z" transform="translate(-161 -161)"/><path d="M247.74,495l-1.2-1.72.24-.13-1.66-3,29.55-16.51,1.66,3,4.71-2.63-5.39-9.65-3.88-8.13L267.65,446l-5,2,1.27,3.16-31.42,12.6-1.26-3.17-5,2,4.41,11,0,0,.28.59.22.57,0,0,4.57,9.57,0,0,.31.56.27.55h0l5.49,9.83-.29.2,6.75,9.63,4.41-3.09-1.73-2.48q17.32-7.83,24.57-12.61l.07.09q-7.73,5.75-20.17,18.9l-1.74-2.47-4.41,3.09,7.09,10.11,4.41-3.09L259,511.05l28.12-28.86-2.78-4Zm22.37-29.5.75,1.35.65,1.36L242,484.71l-1.27-2.28-1.13-2.35Zm-3.94-8.48.66,1.38.56,1.41-30.46,14.53-1.11-2.33-1-2.43Z" transform="translate(-161 -161)"/><path d="M254.82,408.29l.12,3.41,5.39-.2-.47-13.11h-.08l.39-5.71-5.38-.37-.17,2.57L245,389.83l10.24-3.7-.16,2.37,5.37.37.79-11.38-5.38-.37-.16,2.31-17.46,6.26L221.85,378l.18-2.66-5.37-.37-.75,10.79,5.38.37.16-2.31,9.78,4.25-10.33,3.66.16-2.35-5.37-.37-.77,11.13.34,0,.47,12.9,5.39-.19-.13-3.41Zm-34.18-8.48h-.29l.08-1.24,17.49-6.42,16.3,8.48-.09,1.37-33.36,1.2Z" transform="translate(-161 -161)"/><polygon points="76.08 163.59 94.66 164.95 106.02 179.39 104.95 181.37 109.7 183.93 114.72 174.59 109.97 172.04 108.75 174.31 102.05 165.73 112.91 166.59 111.78 168.67 116.53 171.23 121.93 161.19 117.19 158.63 116.09 160.67 97.6 159.17 85.84 145.46 87.1 143.11 82.35 140.56 77.23 150.08 81.98 152.63 83.07 150.6 90.23 158.5 79.31 157.58 80.43 155.5 75.69 152.95 70.4 162.78 75.14 165.33 76.08 163.59"/><path d="M296.05,253.62l15.43,10.43,2.66,18.18-1.92,1.19,2.85,4.58,9-5.6-2.84-4.58L319,279.18l-1.54-10.77,9,6.15-2,1.25,2.84,4.58,5.58-3.47,0,.07,11.8-5.73-2.35-4.85-3.07,1.49-14.77-30.45,3.06-1.49-2.35-4.85-11.8,5.73,1.63,3.37L313,236.77l-9.19,5.7,2.85,4.58,2-1.22,2.28,10.42-9-6.23,2-1.25L301,244.19l-9.49,5.89,2.85,4.58Zm19.63-12.2.13.27,3.06-1.49,14.58,30-1.25.77L316.91,260.5l-3.37-17.74Z" transform="translate(-161 -161)"/><path d="M377.19,221.92l8.73,16.46-6.19,17.3-2.25.15.36,5.38,10.58-.71-.36-5.38-2.57.17,3.7-10.23,5.05,9.65-2.37.16.36,5.37,6.54-.44v.08l11,.42,11,1.13.56-5.36-3.39-.35,3.46-33.67,3.39.35.55-5.36-11.82-1.22v0l-.63,0-.6-.07v0l-11.87-.44-.15,3.79L400,215l-10.79.72.37,5.38,2.3-.15L389,231.2l-5-9.73,2.35-.16-.36-5.38-11.14.75.36,5.38Zm35.35-.79,2.62.27L411.71,255l-1.54-.06-1.49-.15L410,221Zm-14.81-.58,2.52-.17v.29l3.41.13-1.26,33.36-1.45.1-8.57-16.46Z" transform="translate(-161 -161)"/><path d="M418.86,534.75a13.32,13.32,0,0,1,3.78-6.65A130.22,130.22,0,0,1,400.5,530h-.38V480.82h.38a81.21,81.21,0,0,0,11.09-.78c-.63-2-1.24-3.94-1.85-5.81a73.25,73.25,0,0,1-22.7-.65q-.8,2.82-1.62,5.8a79.22,79.22,0,0,0,13.16,1.39L397.72,530a128.76,128.76,0,0,1-21.65-2.28c-.92,1.84-1.83,3.72-2.72,5.59a136,136,0,0,0,45.51,1.48Z" transform="translate(-161 -161)"/><path d="M536,400.5C536,325.79,475.21,265,400.5,265S265,325.79,265,400.5c0,63.05,43.29,116.18,101.71,131.23,0-2.08,0-4.18-.07-6.23l-.08,0,.08-.3c0-1.67-.08-3.29-.12-4.81,0-1.18-.06-2.28-.09-3.29l-2.21,7.74a129.06,129.06,0,0,1-28.93-12.47l24.59-42.58a79.84,79.84,0,0,0,17.88,7.76l-7.2,25.12a8.75,8.75,0,0,1,2.33-1l4.37-16.41c.85-4.76,1.62-9.23,2.32-13.44a74.3,74.3,0,1,1,43.35-.44c.27,1.94.56,3.95.87,6a80.2,80.2,0,0,0,15.42-6.52l23.86,43a128.47,128.47,0,0,1-27.43,11.31,13.32,13.32,0,0,1,6.27,4.37C496.44,512,536,460.77,536,400.5Zm-78.67,56.72a81.26,81.26,0,0,0,12.09-15.5l42.09,25.4A130.16,130.16,0,0,1,492.08,492ZM480.82,400a79.93,79.93,0,0,0-2.51-19.51l47.74-11.76A129,129,0,0,1,530,399.94Zm0,1.46,49.17.9a129.53,129.53,0,0,1-4.27,31.21l-47.52-12.65A80,80,0,0,0,480.81,401.46Zm31.43-66.34L469.7,359.77a80.7,80.7,0,0,0-11.88-15.48l35.38-34.11A129.75,129.75,0,0,1,512.24,335.12ZM368.73,275a129.05,129.05,0,0,1,31-3.94v49.18a80.06,80.06,0,0,0-19.15,2.47Zm10.47,48.11a79.61,79.61,0,0,0-17.85,7.33l-23.89-43a129.28,129.28,0,0,1,28.92-11.84Zm23.21-52a129.11,129.11,0,0,1,31,4.22l-12.67,47.51a80.24,80.24,0,0,0-19.22-2.56Zm33.34,4.86A128.34,128.34,0,0,1,464.63,288L440,330.61a80.25,80.25,0,0,0-17.91-7.46ZM308.8,309.15l34.82,34.68a80.75,80.75,0,0,0-11.91,15.22l-42.13-25.33A131,131,0,0,1,308.8,309.15ZM271,400.5v-.32h49.17v.32a80.25,80.25,0,0,0,2.27,18.91L274.7,431.25A129.39,129.39,0,0,1,271,400.5Zm49.21-1.85L271,397.8a128.7,128.7,0,0,1,4.41-30.92L323,379.49A80.13,80.13,0,0,0,320.21,398.65Zm-32.07,66.18,42.53-24.7a80.17,80.17,0,0,0,11.6,15.62l-35.36,34.16A129.87,129.87,0,0,1,288.14,464.83ZM358.58,469l-25.37,42.12a130.26,130.26,0,0,1-24.61-19.46l34.7-34.81A80.52,80.52,0,0,0,358.58,469Zm-28.66-30.15-43,23.88a128,128,0,0,1-11.66-29.11l47.48-12.78A79.86,79.86,0,0,0,329.92,438.84Zm-6.55-60.75-47.28-13.56a128.89,128.89,0,0,1,12.26-28.73L331,360.34A80,80,0,0,0,323.37,378.09Zm21.31-35.28-34.15-35.36a130.67,130.67,0,0,1,24.84-18.84l24.71,42.51A80.57,80.57,0,0,0,344.68,342.81Zm96.65-11.46,25.4-42.09a130.61,130.61,0,0,1,24.78,19.2l-34.76,34.76A81,81,0,0,0,441.33,331.35Zm29.11,29.71,43-23.84a128.75,128.75,0,0,1,12,29.12l-47.51,12.74A79.36,79.36,0,0,0,470.44,361.06Zm7.35,61.28L525.07,436A129.06,129.06,0,0,1,512.76,465l-42.59-24.59A79.79,79.79,0,0,0,477.79,422.34Zm-37.26,47.77A81.21,81.21,0,0,0,456.2,458.3l34.18,35.34a130.45,130.45,0,0,1-25.19,19Z" transform="translate(-161 -161)"/><path d="M433.2,531.16c.06.26.11.54.16.8l1.18-.29A6.74,6.74,0,0,0,433.2,531.16Z" transform="translate(-161 -161)"/><path d="M427,532.85c-.21.21-.41.43-.59.65l.73-.14C427.09,533.2,427,533,427,532.85Z" transform="translate(-161 -161)"/><path d="M431.91,524.5a12.35,12.35,0,0,1,1.61.15l-5.11-19Q430,514.51,431.91,524.5Z" transform="translate(-161 -161)"/><path d="M569.85,231.15A239.49,239.49,0,1,0,640,400.5,237.91,237.91,0,0,0,569.85,231.15Zm-4.62,334.08A233.67,233.67,0,1,1,633.67,400,232.16,232.16,0,0,1,565.23,565.23Z" transform="translate(-161 -161)"/><path d="M400,170.33c-126.64,0-229.67,103-229.67,229.67S273.36,629.67,400,629.67,629.67,526.64,629.67,400,526.64,170.33,400,170.33ZM608.2,392.16l-9,.32c-.22-6.18-.73-12.41-1.52-18.51l8.93-1.15C607.44,379.2,608,385.71,608.2,392.16Zm-1.85-21.36L597.43,372c-.85-6.11-2-12.25-3.4-18.24l8.76-2.07C604.26,358,605.46,364.4,606.35,370.8Zm-4-21.07-8.74,2.16c-1.47-6-3.25-12-5.27-17.8l8.5-3C598.91,337.21,600.77,343.47,602.31,349.73Zm-6.19-20.53-8.48,3.05c-2.08-5.8-4.46-11.57-7.08-17.16l8.14-3.82C591.44,317.11,593.94,323.14,596.12,329.2Zm-8.29-19.77-8.11,3.9c-2.67-5.54-5.64-11-8.82-16.33l7.71-4.64C581.94,297.89,585,303.63,587.83,309.43Zm-10.28-18.81-7.67,4.71c-3.23-5.24-6.75-10.4-10.45-15.34l7.19-5.41C570.5,279.74,574.17,285.13,577.55,290.62ZM565.38,273l-7.14,5.48c-3.75-4.9-7.78-9.67-12-14.2l6.6-6.11C557.25,262.86,561.46,267.85,565.38,273Zm-13.9-16.32-6.55,6.18c-4.23-4.49-8.73-8.83-13.36-12.9l5.94-6.76C542.35,247.42,547.05,252,551.48,256.64ZM536,241.82l-5.87,6.82c-4.68-4-9.59-7.89-14.61-11.46l5.22-7.34C526,233.58,531.09,237.61,536,241.82ZM519,228.67l-5.14,7.38c-5.07-3.53-10.35-6.86-15.71-9.9l4.44-7.83C508.22,221.49,513.74,225,519,228.67Zm-18.2-11.35-4.36,7.87c-5.4-3-11-5.76-16.64-8.23l3.6-8.25C489.33,211.3,495.19,214.19,500.83,217.32Zm-19.28-9.42L478,216.18c-5.67-2.41-11.53-4.59-17.4-6.46l2.73-8.58C469.5,203.1,475.62,205.37,481.55,207.9ZM442.6,195.69c6.31,1.32,12.64,2.94,18.79,4.84l-2.64,8.6c-5.89-1.81-11.94-3.37-18-4.63Zm-21.19-3.27c6.42.66,12.88,1.62,19.19,2.87l-1.75,8.83c-6-1.2-12.21-2.12-18.36-2.75ZM400,191.33c6.45,0,13,.3,19.37.89l-.83,9c-6.12-.57-12.36-.86-18.55-.86h-.43l0-9Zm-2.51,0,.11,9c-6.19.07-12.42.43-18.54,1.07l-.93-8.95C384.53,191.8,391,191.42,397.5,191.35Zm-21.39,1.34,1,8.94c-6.14.7-12.3,1.7-18.33,3l-1.85-8.8C363.25,194.46,369.7,193.42,376.11,192.69ZM355,196.22l1.93,8.79c-6,1.32-12.05,3-17.92,4.84l-2.75-8.57C342.36,199.31,348.66,197.6,355,196.22Zm-20.68,5.69,2.84,8.54c-5.85,2-11.68,4.19-17.32,6.67l-3.63-8.23C322.07,206.29,328.16,203.94,334.28,201.91Zm-20,7.81,3.71,8.2c-5.62,2.53-11.18,5.37-16.54,8.42L297,218.52C302.63,215.33,308.44,212.37,314.31,209.72Zm-19.05,9.82,4.53,7.78c-5.33,3.1-10.57,6.49-15.59,10.08L279,230.08C284.21,226.33,289.69,222.78,295.26,219.54Zm-17.95,11.73,5.31,7.27c-5,3.64-9.85,7.55-14.48,11.63l-5.95-6.74C267,239.16,272.11,235.07,277.31,231.27Zm-16.65,13.52,6,6.69c-4.58,4.12-9,8.51-13.21,13l-6.61-6.1C251.23,253.69,255.87,249.1,260.66,244.79Zm-15.18,15.14,6.67,6c-4.14,4.57-8.11,9.39-11.81,14.33l-7.2-5.39C237,269.75,241.15,264.71,245.48,259.93Zm-13.56,16.62,7.26,5.32c-3.65,5-7.11,10.18-10.28,15.47l-7.72-4.63C224.49,287.19,228.1,281.75,231.92,276.55Zm-11.78,17.92L227.9,299c-3.12,5.33-6,10.86-8.63,16.44l-8.15-3.8C213.84,305.82,216.87,300,220.14,294.47Zm-9.88,19,8.19,3.72c-2.55,5.62-4.87,11.42-6.88,17.25l-8.51-2.94C205.17,325.45,207.59,319.39,210.26,313.52Zm-7.86,20,8.53,2.85c-2,5.85-3.66,11.86-5.06,17.86l-8.76-2C198.57,345.88,200.35,339.6,202.4,333.49Zm-5.75,20.66,8.79,2c-1.34,6-2.41,12.16-3.19,18.29l-8.93-1.13C194.13,366.87,195.25,360.44,196.65,354.15Zm-3.57,21.15,8.94,1c-.72,6.11-1.15,12.34-1.3,18.52l-9-.21C191.88,388.19,192.33,381.68,193.08,375.3Zm-1.41,24.37c0-1,0-2,0-3l9,.12c0,.95,0,1.9,0,2.86,0,5.23.2,10.52.61,15.71l-9,.7C191.88,410.65,191.67,405.13,191.67,399.67Zm.8,18.44,9-.78c.54,6.15,1.37,12.34,2.48,18.39l-8.86,1.62C193.91,431,193,424.54,192.47,418.11Zm3,21.24,8.84-1.71c1.17,6.06,2.64,12.13,4.36,18.05L200,458.21C198.2,452,196.66,445.68,195.44,439.35Zm5.15,20.82,8.61-2.61c1.79,5.9,3.88,11.79,6.21,17.49l-8.33,3.41C204.64,472.49,202.46,466.34,200.59,460.17Zm7.27,20.16,8.3-3.48c2.39,5.68,5.07,11.32,8,16.75l-7.93,4.25C213.17,492.17,210.36,486.27,207.86,480.33Zm9.32,19.31,7.89-4.32c3,5.4,6.22,10.74,9.67,15.85l-7.45,5C223.68,510.87,220.27,505.29,217.18,499.64Zm11.26,18.25,7.4-5.11c3.51,5.07,7.29,10.05,11.25,14.77l-6.9,5.78C236.05,528.39,232.1,523.2,228.44,517.89Zm13.07,17,6.84-5.85c4,4.7,8.28,9.25,12.7,13.55L254.78,549C250.16,544.55,245.7,539.79,241.51,534.89Zm14.74,15.57,6.21-6.51c4.47,4.26,9.18,8.35,14,12.18l-5.58,7.06C265.85,559.19,260.92,554.91,256.25,550.46Zm16.26,14,5.51-7.12c4.88,3.78,10,7.38,15.19,10.68l-4.82,7.6C283,572.15,277.61,568.4,272.51,564.45Zm17.61,12.25,4.75-7.64c5.24,3.26,10.69,6.31,16.21,9.06l-4,8C301.29,583.29,295.59,580.11,290.12,576.7Zm18.78,10.38,3.94-8.1c5.54,2.71,11.28,5.17,17.05,7.34l-3.17,8.43C320.69,592.48,314.69,589.9,308.9,587.08Zm19.75,8.38,3.08-8.46c5.79,2.12,11.75,4,17.72,5.54l-2.28,8.7C340.94,599.61,334.7,597.67,328.65,595.46Zm39.53,10.12c-6.38-1-12.78-2.26-19-3.83l2.19-8.73c6,1.5,12.1,2.73,18.2,3.67Zm21.33,2.16c-6.45-.32-12.94-.94-19.31-1.86l1.27-8.9c6.1.87,12.32,1.47,18.48,1.77ZM400,608c-2.8,0-5.65-.06-8.45-.17l.36-9c6.18.24,12.44.21,18.57-.11l.46,9C407.32,607.91,403.64,608,400,608Zm13-.4-.56-9c6.16-.38,12.37-1,18.46-2l1.38,8.89C425.91,606.5,419.42,607.21,413,607.6Zm34.84.64L445.7,603c-3.79.84-7.6,1.6-11.41,2.23l-1.47-8.88c3.15-.52,6.3-1.12,9.43-1.8-.77-1.81-1.61-3.66-2.48-5.54a192.61,192.61,0,0,1-39.27,4C294.35,593,208,506.64,208,400.5S294.35,208,400.5,208,593,294.35,593,400.5c0,90.2-62.36,166.09-146.22,186.86,0,2.07.08,4.1.16,6.08,1.35-.33,2.69-.66,4-1l2.29,8.71q-2.86.75-5.78,1.42Zm7.41-7.64-2.38-8.68c5.94-1.63,11.88-3.56,17.65-5.75l3.18,8.42C467.66,596.87,461.45,598.89,455.24,600.6Zm20.36-6.74-3.27-8.39c5.75-2.24,11.45-4.77,17-7.54l4,8.05C487.57,588.87,481.61,591.52,475.6,593.86Zm19.55-8.81-4.12-8c5.48-2.82,10.89-5.93,16.1-9.25l4.84,7.58C506.53,578.86,500.87,582.11,495.15,585.05Zm18.53-10.77-4.92-7.54c5.17-3.37,10.24-7,15.07-10.86l5.59,7C524.38,566.94,519.08,570.75,513.68,574.28ZM531,561.66l-5.67-7c4.79-3.88,9.46-8,13.88-12.34l6.28,6.44C540.9,553.26,536,557.6,531,561.66Zm16-14.33L540.62,541c4.37-4.36,8.59-9,12.54-13.7l6.91,5.76C556,538,551.54,542.78,547,547.33Zm14.4-15.89-7-5.7c3.9-4.77,7.63-9.79,11.07-14.9l7.47,5C569.35,521.21,565.45,526.45,561.37,531.44Zm12.71-17.28-7.51-4.95c3.39-5.16,6.58-10.53,9.48-16l7.94,4.23C581,503.15,577.63,508.77,574.08,514.16ZM585,495.66l-8-4.15c2.85-5.47,5.47-11.14,7.79-16.86l8.34,3.39C590.66,484,587.92,489.94,585,495.66Zm8.9-19.52-8.37-3.31c2.26-5.73,4.28-11.64,6-17.56l8.64,2.5C598.33,464,596.22,470.14,593.85,476.14Zm6.83-20.33L592,453.39c1.66-5.94,3-12,4.15-18.1l8.86,1.6C603.87,443.24,602.41,449.6,600.68,455.81Zm4.69-20.93-8.87-1.51c1-6.07,1.79-12.27,2.26-18.43l9,.68C607.24,422.06,606.45,428.54,605.37,434.88ZM598.9,413c.29-4.4.43-8.88.43-13.32,0-1.74,0-3.5-.06-5.25l9-.23c0,1.83.07,3.67.07,5.48,0,4.63-.15,9.32-.45,13.91Z" transform="translate(-161 -161)"/><path d="M453.17,400.5a52.67,52.67,0,1,0-70.26,49.65c2.35-16.84,3.17-27.59,3.37-34.77-.36-.62-.7-1.19-1-1.72-1.55-2.64-2.57-4.38-3.08-6.67a19.51,19.51,0,0,1,11.1-22.2L390.4,372a8.15,8.15,0,0,1-5.91-6.12,8.27,8.27,0,0,1,6.23-9.89,8.69,8.69,0,0,1,1.83-.2,8.24,8.24,0,0,1,5.36,14.51l1.16,5.15a6.63,6.63,0,0,1,.17-1.31,7,7,0,0,1,6.89-5.49h0a7.11,7.11,0,0,1,1.59.18,7.06,7.06,0,0,1,.45,13.65l-.4,1.71a19.48,19.48,0,0,1,12.62,14.17c.5,2.22.21,4.18-.24,7.16-.88,5.95-2.49,16.75.14,43.81A52.67,52.67,0,0,0,453.17,400.5Z" transform="translate(-161 -161)"/><path d="M400.84,383.09l.51-2.2a7.25,7.25,0,0,1-1.48-1.93l.94,4.13Z" transform="translate(-161 -161)"/><path d="M402.61,453.11c-1.79-5-3.45-9.43-5-13.28-1.35,3.78-2.79,8-4.33,12.84a53.37,53.37,0,0,0,7.19.5C401.21,453.17,401.91,453.14,402.61,453.11Z" transform="translate(-161 -161)"/><path d="M386,403.42a17.23,17.23,0,0,1,.1-5.42A14.47,14.47,0,0,1,400,386.72l.36-1.61c-.37,0-.75.05-1.13.1l-3.58-15.78a6.24,6.24,0,0,0-3.11-11.66,6.42,6.42,0,0,0-3.14.84,6.25,6.25,0,0,0,2.64,11.64L395.63,386a17.29,17.29,0,0,0-5.63,3.16,17.57,17.57,0,0,0-5.85,17.36,16.89,16.89,0,0,0,2.18,4.94C386.31,407.76,386.11,405.29,386,403.42Z" transform="translate(-161 -161)"/><path d="M444.76,580l0-3.26c.1-7.56.32-14.62.2-19.24,0-1-.07-1.86-.13-2.61,0-.25,0-.49-.07-.7a8.67,8.67,0,0,0-.18-1.13,9.21,9.21,0,0,0-.84-2.29,11.35,11.35,0,0,0-.62-1,9.28,9.28,0,0,0-1.59-1.72,8,8,0,0,0-.93-.69,9.38,9.38,0,0,0-2.09-1,11.44,11.44,0,0,0,2.55-2.87c.13-.21.26-.44.38-.66a11,11,0,0,0,.86-2.14,6.87,6.87,0,0,0,.19-.75,11.19,11.19,0,0,0,.12-3.94q-.06-.4-.15-.81t-.27-1l-.12-.32c-.08-.21-.15-.42-.24-.62a4,4,0,0,0-.17-.36c-.09-.19-.17-.37-.27-.54s-.14-.24-.21-.36a4.94,4.94,0,0,0-.3-.49l-.24-.35-.33-.44-.28-.33-.19-.21h0a11.16,11.16,0,0,0-8.24-3.66,12.73,12.73,0,0,0-1.37.08c-21.89-113.2-9.94-119.45-11.83-127.8a17.57,17.57,0,0,0-11.12-12.62l-.49,2.13a14.54,14.54,0,0,1,7.6,16.24,13.63,13.63,0,0,1-2.45,4.72c-2.45,3.62-6.76,9.95-13.31,27.75.66,1.64,1.34,3.37,2.05,5.22q.81,2.11,1.67,4.42c.85,2.32,1.75,4.78,2.68,7.41l.94,2.69q1.92,5.49,4,11.93c.7,2.15,1.43,4.38,2.17,6.7,4.44,13.91,9.52,31,15.33,51.92a11.18,11.18,0,0,0-6.48,6.89,11.08,11.08,0,0,0,5.22,13.19,11.26,11.26,0,0,0,2.88,1.09,9.23,9.23,0,0,0-2.59,8.68c1.12,5,12.5,24.05,18.51,38.93C444.77,591.06,444.72,585.47,444.76,580Zm-13-33.72h-.43l-.31,0-.48,0-.28,0-.55-.11-.2,0-.72-.22-.14-.06c-.19-.07-.37-.14-.56-.23l-.24-.12-.43-.22-.25-.15-.38-.24-.26-.19c-.11-.09-.23-.17-.34-.27a1.64,1.64,0,0,1-.25-.21l-.32-.29-.23-.23c-.1-.1-.19-.21-.29-.32l-.21-.25c-.09-.11-.17-.23-.26-.35l-.19-.27c-.08-.12-.15-.25-.23-.38s-.11-.18-.16-.28-.14-.28-.21-.42l-.13-.27c-.07-.16-.13-.33-.19-.5l-.09-.24c-.08-.25-.15-.51-.21-.77a8.66,8.66,0,0,1,5-9.86q2.18,7.91,4.48,16.55C432.37,546.26,432.05,546.28,431.73,546.28Zm5.9-2.41-.08.06a8.42,8.42,0,0,1-3.42,2h0q-1.42-7-2.71-13.47h0c-.23-1.15-.45-2.3-.67-3.42a8.53,8.53,0,0,1,6.4,1.94h0l.24.21c.11.09.21.19.31.29s.16.15.23.23.19.21.29.32a2.43,2.43,0,0,1,.2.25c.09.11.18.23.26.35a2.48,2.48,0,0,1,.19.26c.08.12.16.25.23.38s.11.18.16.28l.21.42.13.27.18.49.09.24c.08.25.15.5.21.77a8.61,8.61,0,0,1,.12,3.19c-.05.3-.11.6-.18.88s-.15.52-.24.77a8.56,8.56,0,0,1-.43,1A8.9,8.9,0,0,1,437.63,543.87Z" transform="translate(-161 -161)"/><path d="M395.3,399.67a5.18,5.18,0,0,0,.89,2.9,4.7,4.7,0,0,0,.63.77,5.12,5.12,0,0,0,1.66,1.12,5.18,5.18,0,0,0,4,0,5.12,5.12,0,0,0,1.66-1.12,4.7,4.7,0,0,0,.63-.77,5.19,5.19,0,0,0,0-5.81,4.7,4.7,0,0,0-.63-.77,5.28,5.28,0,0,0-1.66-1.12,5.3,5.3,0,0,0-4,0,5.28,5.28,0,0,0-1.66,1.12,4.7,4.7,0,0,0-.63.77A5.18,5.18,0,0,0,395.3,399.67Z" transform="translate(-161 -161)"/><path d="M397.57,434.3h0c.42-1.11.83-2.18,1.23-3.19.21-.56.43-1.1.64-1.63,1.92-4.77,3.61-8.5,5.09-11.46,4.76-9.53,7.3-11.09,8-13.94a12.55,12.55,0,0,0-8-14.62l2-8.72a5.06,5.06,0,0,0,.76-10,5,5,0,0,0-1.14-.13,5.1,5.1,0,0,0-4.95,3.94,5,5,0,0,0,.69,3.86,5.82,5.82,0,0,0,.48.63,5.08,5.08,0,0,0,1.24,1l-.71,3.08h0l-.46,2h0l-.84,3.66a12.16,12.16,0,0,0-1.34-.07A12.56,12.56,0,0,0,388,398.45c-1.49,6.48,6,10-12.06,105a7.13,7.13,0,0,0-.79-.05H375a7.93,7.93,0,0,0-1,.08l-.12,0a6.27,6.27,0,0,0-1,.25l-.05,0a6.6,6.6,0,0,0-3.85,3.61.42.42,0,0,0,0,.1,5.89,5.89,0,0,0-.33,1,10.69,10.69,0,0,0-.21,1.87l0,.63c0,.44,0,.91,0,1.42s0,1,0,1.62,0,1.17,0,1.79c0,.31,0,.63,0,1,0,1.3.06,2.69.1,4.15q0,1.09.06,2.22c.06,2.27.11,4.63.12,7v1.18c0,2.74-.06,5.45-.23,7.95.68-1.65,1.44-3.39,2.25-5.14.2-.44.41-.88.62-1.32h0c.29-.62.58-1.24.88-1.86.51-1.06,1-2.12,1.55-3.16.08-.18.17-.36.26-.53h0l.77-1.54.51-1c.5-1,1-2,1.48-2.94l.93-1.85.44-.89.83-1.67a36.57,36.57,0,0,0,2.52-5.9,6.7,6.7,0,0,0,0-3.12,6.56,6.56,0,0,0-.7-1.69,6.18,6.18,0,0,0-.71-1,6.37,6.37,0,0,0-.88-.84,6.67,6.67,0,0,0-2.21-1.16c1.09-4.37,2.17-8.54,3.21-12.52.69-2.64,1.38-5.21,2.05-7.69.41-1.52.82-3,1.22-4.46h0c.55-2,1.08-3.92,1.61-5.79h0c.35-1.23.7-2.45,1.05-3.64q.93-3.24,1.83-6.24c.59-2,1.18-3.94,1.75-5.8.87-2.79,1.7-5.42,2.51-7.9q1.62-5,3.1-9.13c.25-.7.49-1.39.73-2.05l.5-1.38h0C396.89,436.11,397.23,435.19,397.57,434.3Zm9.13-34.63a6.2,6.2,0,1,1-6.2-6.2A6.21,6.21,0,0,1,406.7,399.67Z" transform="translate(-161 -161)"/></svg>