<svg id="Layer_1" data-name="Layer 1" xmlns="http://www.w3.org/2000/svg" viewBox="0 0 465.33 465.33"><title>Compass</title><path d="M482.67,250l-33.78-3.48-3.65-.38c-.11-5-.41-10.13-.9-15.16l0-.41,9.45-.91,0,.35c.56,5.7.87,11.43,1,17.11l3.55.37a206.42,206.42,0,0,0-59.18-142.33l16-19.68-.17.17-3.17,2.58,2.75-2.75-19.36,15.74A206.49,206.49,0,0,0,252.64,42.87L250,17.33,247.36,42.9a206.44,206.44,0,0,0-141,59.11L86.07,85.48l.17.17,2.58,3.17-3.34-3.34h0L219.23,250,203.6,230.78l-20,2.07a69.56,69.56,0,0,1,7.45-17.51l-2.38-2.93a73.4,73.4,0,0,0-8.86,20.83L124.32,239a125.71,125.71,0,0,1,29.47-69.46l-1.53-1.87a128.08,128.08,0,0,0-30.35,71.58l-7.7.79a138.15,138.15,0,0,1,2-15.18l7.52,1.48c.14-.75.3-1.5.46-2.25l-7.5-1.61a136.09,136.09,0,0,1,7.12-23.25l7.18,3,.9-2.11-7.14-3.11a137,137,0,0,1,11.54-21.42l6.57,4.39,1.29-1.9-6.5-4.52a137.48,137.48,0,0,1,9.44-12.18l-1.55-1.9a138.7,138.7,0,0,0-33.77,80.85l-51.08,5.27a189.83,189.83,0,0,1,52.12-126.38l-2.32-2.86q-5,5.2-9.51,10.77l-7.35-6q5.16-6.28,10.83-12.17l-2.2-2.71A206.42,206.42,0,0,0,44.08,247.24L17.33,250l26.75,2.76a206.43,206.43,0,0,0,58.53,141.42l-14,17.17-3.17,3.17h0l1.75-1.42-1.16,1.42.17-.17h0L106.39,398a206.5,206.5,0,0,0,141,59.12L250,482.67l2.64-25.54a206.49,206.49,0,0,0,142.79-58.61l16.51,13.42,2.58,2.58-1.16-1.42,1.75,1.42-.17-.17L399.1,394.86a206.44,206.44,0,0,0,59.2-142.35ZM231.23,47.4c5.23-.52,10.5-.82,15.76-.94L246,56c-4.62.13-9.25.42-13.85.87l-.29,0-.94-9.45ZM212.74,188.46l-42.83-34.83a125.67,125.67,0,0,1,68.94-28.22l-5.61,54.4A73.44,73.44,0,0,0,212.74,188.46Zm20.11-4.86-2,19.56-15.14-12.31A69.71,69.71,0,0,1,232.85,183.6ZM168,152.11l-6.44-5.24a136.73,136.73,0,0,1,12.15-9.37l4.59,6.84c.63-.43,1.27-.85,1.91-1.27l-4.47-6.92a137,137,0,0,1,21.51-11.53l3.24,7.78c.7-.3,1.41-.58,2.12-.86l-3.1-7.84a135.32,135.32,0,0,1,23.4-7.09l1.68,8.43,2.26-.43-1.54-8.47A135.81,135.81,0,0,1,240,114.21L239.1,123A128.11,128.11,0,0,0,168,152.11Zm-8.34-6.79-40.31-32.76a189.87,189.87,0,0,1,126.26-53l-5.39,52.24A138.67,138.67,0,0,0,159.69,145.32ZM191.8,55.23l2.76,9.09a192.48,192.48,0,0,0-35.12,14.59L155,70.54A202.9,202.9,0,0,1,191.8,55.23Zm-70,37.54,6,7.33c-3.91,3.22-7.69,6.61-11.35,10.13l-7.41-6C113.19,100.22,117.43,96.39,121.83,92.77Zm-5.4,27L244.27,247.63H220.36ZM217.89,252.37l-11,13.6L75.22,252.37Zm-76,68.51-6.16,4a135.51,135.51,0,0,1-11.32-21.42l6.81-2.84c-.29-.7-.58-1.41-.86-2.12l-6.87,2.72A135.59,135.59,0,0,1,116.52,278l7.32-1.45c-.15-.75-.29-1.51-.43-2.26l-7.35,1.33a137.45,137.45,0,0,1-2-15.59l7.6.79a128.08,128.08,0,0,0,29.87,73.17l-4.72,5.81A136.65,136.65,0,0,1,137,326.89l6.09-4.09Q142.47,321.86,141.85,320.88ZM124.11,261l55.14,5.69A73.06,73.06,0,0,0,188.09,289l-35,43A125.71,125.71,0,0,1,124.11,261ZM183,267.09l21.16,2.18-13.65,16.8A69.64,69.64,0,0,1,183,267.09Zm-71.28-7.35a138.64,138.64,0,0,0,33.61,81.9L113.16,381.2A189.79,189.79,0,0,1,60.72,254.48Zm121.78,62.88L239.1,377a125.83,125.83,0,0,1-70.64-29.46l42.65-34.66A73.06,73.06,0,0,0,233.49,322.62ZM214,310.5l16.82-13.66,2.27,22A69.38,69.38,0,0,1,214,310.5Zm25.33,68.89.8,7.75a136.6,136.6,0,0,1-16.56-2.28l1.46-7.44L222.8,377l-1.6,7.39A135.27,135.27,0,0,1,198.05,377l2.85-6.89-2.12-.9-3,6.83a137.67,137.67,0,0,1-21.25-11.68l4.09-6.13-1.9-1.3L172.56,363a136.82,136.82,0,0,1-11.78-9.24l5.81-4.72A128,128,0,0,0,239.34,379.39Zm1,10.16,5.25,50.89a189.88,189.88,0,0,1-126.27-53l39.52-32.12A138.67,138.67,0,0,0,240.39,389.55ZM71.52,154.22l8.37,4.48a194.5,194.5,0,0,0-14.55,35.15l-9.08-2.75A203,203,0,0,1,71.52,154.22Zm-23,76,9.45.91c-.47,4.87-.75,9.8-.85,14.72l-9.51,1C47.7,241.33,48,235.75,48.53,230.26ZM48.59,270c-.56-5.6-.87-11.25-1-16.85l9.51,1c.11,5,.41,10,.9,14.91l0,.21-9.46.91Zm23.09,76.17a202.5,202.5,0,0,1-15.29-36.86l9.09-2.76a192.2,192.2,0,0,0,14.57,35.13Zm33.13,45.33c-3.8-3.93-7.45-8-10.91-12.2l7.33-6q4.59,5.56,9.6,10.81Zm17.33,16c-4.51-3.7-8.86-7.61-13-11.68l7.42-6q5.63,5.42,11.65,10.37Zm70.05,37.44a202.73,202.73,0,0,1-36.87-15.28l4.48-8.37A193.53,193.53,0,0,0,195,435.81Zm39.15,7.75.92-9.45q6.83.66,13.75.83l1,9.52C241.76,453.45,236.52,453.15,231.34,452.65Zm16.29-173L119.79,383.57,247.63,255.73Zm0-62.83-13.5-11,13.5-130.62Zm43,96.49L332.11,347A125.78,125.78,0,0,1,260.9,377l5.55-53.81A73.23,73.23,0,0,0,290.6,313.3Zm-23.76,6.14L269.26,296l18.43,15A69.43,69.43,0,0,1,266.84,319.44ZM334,348.56l6.52,5.3a137.56,137.56,0,0,1-14.43,11l-4.52-6.73-1.91,1.25,4.39,6.82a137.37,137.37,0,0,1-21.62,11.2L299.34,370c-.7.3-1.41.58-2.12.86l2.93,7.4a136.06,136.06,0,0,1-23.39,6.76l-1.52-7.69-2.26.43,1.39,7.7a136.07,136.07,0,0,1-14.52,1.72l.81-7.82A128.11,128.11,0,0,0,334,348.56Zm8.39,6.82L382.45,388a189.89,189.89,0,0,1-128.1,52.52l5.25-50.86A138.67,138.67,0,0,0,342.37,355.38Zm-86.64-103h23.91L383.57,380.21Zm128.58,27.94a135.59,135.59,0,0,1-7.43,23.34l-8-3.3c-.29.71-.59,1.42-.9,2.12l7.88,3.43a136.54,136.54,0,0,1-11.85,21.39l-7-4.69c-.43.63-.86,1.27-1.3,1.9l6.92,4.8q-3.87,5.49-8.25,10.55L349,333.23a128.09,128.09,0,0,0,29.27-72.46l8.95-.92a137.4,137.4,0,0,1-2.41,18.06l-8.61-1.7c-.15.75-.3,1.5-.47,2.25Zm-61.13-13.86L375.89,261a125.68,125.68,0,0,1-28.4,70.34l-33.72-41.5A73,73,0,0,0,323.18,266.45Zm-11.8,20.48-14.44-17.77,22.5-2.32A69.58,69.58,0,0,1,311.38,286.93Zm-28.08-39.3,11-13.49,130.52,13.49Zm72.63,94.11a138.58,138.58,0,0,0,33.7-82.14l52-5.37a189.84,189.84,0,0,1-53.1,127.65Zm-59-110.9h0l13.62-16.74a69.76,69.76,0,0,1,8.28,19l3.78.39a73.1,73.1,0,0,0-9.7-22.3l33.6-41.33A125.78,125.78,0,0,1,375.68,239l2.41.25A128.1,128.1,0,0,0,348,168l5.81-7.14a137.19,137.19,0,0,1,10.61,13.82l-7.49,5c.43.64.85,1.27,1.26,1.92l7.58-4.89a136,136,0,0,1,11.38,21.73l-8.32,3.46c.3.7.58,1.41.86,2.12l8.39-3.31A136.92,136.92,0,0,1,385,224.27l-8.8,1.75c.15.75.29,1.5.43,2.26l8.83-1.6q1.17,6.63,1.69,13.46l2.41.25A138.72,138.72,0,0,0,355.38,159l33.19-40.83a189.87,189.87,0,0,1,53.09,127.64l1.47.15Zm-30.23-51.59-5.56-53.84a125.68,125.68,0,0,1,69.24,28.47l-41.79,34A73.34,73.34,0,0,0,266.71,179.25Zm18.93,11L269.22,203.6,267.09,183A69.42,69.42,0,0,1,285.64,190.25ZM260.9,123l-.91-8.88a135.1,135.1,0,0,1,16.83,2.18L275.1,125l2.25.47,1.87-8.66a134.63,134.63,0,0,1,23.43,7.26l-3.42,8.24c.71.3,1.41.59,2.11.9l3.58-8.18a135.8,135.8,0,0,1,21.54,11.73l-5,7.46,1.9,1.29,5.12-7.37q5.67,3.94,10.91,8.43l-7.14,5.8A128.07,128.07,0,0,0,260.9,123Zm-1.16-11.29-5.39-52.2a189.85,189.85,0,0,1,127.83,52.26L341.29,145A138.65,138.65,0,0,0,259.74,111.71Zm170.86,42a203,203,0,0,1,15.33,36.85l-9.09,2.76a192.47,192.47,0,0,0-14.61-35.11Zm-33.68-45.81q6,6.12,11.43,12.7l-7.33,6q-4.83-5.85-10.13-11.33ZM380.07,92.41c4.28,3.49,8.4,7.18,12.38,11l-7.42,6q-5.29-5-11-9.69ZM310,55a203.37,203.37,0,0,1,36.88,15.24l-4.47,8.38a193.5,193.5,0,0,0-35.16-14.53Zm-39.16-7.71-.91,9.45c-5.27-.5-10.6-.78-15.94-.85l-1-9.5C259,46.47,264.93,46.76,270.83,47.33Zm-18.46,173L380.21,116.43,252.37,244.27Zm0,204.42V282.22l13.59,11Zm.63,28.79,1-9.51c5.42-.08,10.84-.38,16.23-.91l.69,6.22.28,3.23C265.12,453.2,259,453.51,253,453.57Zm57.37-8.74-2.75-9.09a192.55,192.55,0,0,0,35.14-14.56l4.48,8.38A202.22,202.22,0,0,1,310.37,444.83Zm70-37.47-6-7.34c3.77-3.09,7.42-6.35,10.95-9.73l7.42,6Q386.78,402.1,380.39,407.36Zm16.51-15.21-6-7.41c3.61-3.75,7.08-7.62,10.37-11.64l7.34,6C404.89,383.63,401,388,396.9,392.15ZM430.76,346l-8.37-4.49A193.71,193.71,0,0,0,437,306.34l9.09,2.76A203.72,203.72,0,0,1,430.76,346Zm23.07-76-9.45-.92c.49-5,.77-10.09.86-15.16l9.51-1C454.68,258.58,454.38,264.31,453.83,269.94Z" transform="translate(-17.33 -17.33)"/></svg>