<?xml version="1.0" encoding="utf-8"?>
<!-- Generator: Adobe Illustrator 22.1.0, SVG Export Plug-In . SVG Version: 6.00 Build 0)  -->
<svg version="1.1" id="Layer_1" xmlns="http://www.w3.org/2000/svg" xmlns:xlink="http://www.w3.org/1999/xlink" x="0px" y="0px"
	 viewBox="0 0 752.1 749.5" style="enable-background:new 0 0 752.1 749.5;" xml:space="preserve">
<title>gears</title>
<path d="M592.3,133.7L592.3,133.7c4,0.8,7.6,2.7,10.5,5.5l4,3.8l0.1,0.1l0.1,0.1l3.5,3.7c3.6-4.4,7.1-8.9,10.6-13.4
	c3.8-4.9,7.5-9.9,11.2-15l43.7-0.7c0,0-9.1-37.2,50.2-103.9C675.8,55.4,642.6,61,628.3,61c-2.7,0.1-5.3-0.2-7.9-0.8l-2.5,47.5
	c-4.4,3.3-8.7,6.6-13,9.9c-6.7,5.3-13.3,10.7-19.8,16.2c1.2-0.2,2.3-0.3,3.5-0.3C589.9,133.4,591.1,133.5,592.3,133.7z M631.8,72.9
	c10.3-0.5,26.2-3.5,47.2-13.6c-4.8,9-8.7,18.4-11.7,28.2c-1.8,6-3,12.2-3.6,18.5l-23,0.4c1.4-2,2.8-4.1,4.1-6.2l1.3-1.9
	c6.1,2.7,13.1,0,15.8-6.1c2.7-6.1,0-13.1-6.1-15.8c-6.1-2.7-13.1,0-15.8,6.1c-1.4,3.1-1.4,6.7,0,9.8l-1.9,1.3
	c-2.6,1.7-5.2,3.5-7.7,5.2L631.8,72.9z"/>
<path d="M65.8,273l1.2,0.8c-0.1-0.3-0.2-0.6-0.2-0.9c-0.4-1.9-0.6-3.9-0.5-5.9l0,0c0.1-2.1,0.5-4.1,1.3-6.1c0.6-1.5,1.2-3.1,1.8-4.6
	c0-0.1,0.1-0.2,0.1-0.3c-5.1-3.8-9.9-8-14.4-12.6C3.2,191.3,3.4,106.9,55.5,55S192.1,3.3,244,55.5c11.3,11.4,20.5,24.7,27.1,39.4
	c4.3-1.6,8.5-3.1,12.8-4.4c0.2-1.5,0.4-3.1,0.6-4.6C252.7,18.4,176.1-15.4,104.9,6.7c-4.7,1.5-9.2,3.1-13.7,5c-2.2,1-4.4,1.9-6.6,3
	c-3.3,1.6-6.5,3.3-9.6,5.1c-1,0.6-2.1,1.2-3.1,1.8c-2.1,1.3-4.1,2.5-6.1,3.9s-3.9,2.7-5.8,4.2c-3.8,2.9-7.5,5.9-11,9.1
	c-2.7,2.4-5.2,4.9-7.7,7.5c-4.1,4.3-8,8.9-11.6,13.7c-0.7,1-1.4,1.9-2.1,2.9c-36.7,51.7-36.7,121,0,172.8c0.7,1,1.4,1.9,2.1,2.9
	c3.6,4.8,7.4,9.3,11.6,13.7c2.5,2.6,5,5.1,7.7,7.5c3.5,3.2,7.2,6.2,11,9.1C61.9,270.3,63.8,271.7,65.8,273z"/>
<path d="M472.7,683.1c1.6,0,3.2-0.3,4.7-0.8l5.2-1.8c1.7-0.6,3.5-1.1,5.2-1.8l4-1.6l0,0l6.2-2.4c6.1-2.5,10.2-8.4,10.3-15
	c0-1.8,0-3.6,0-5.4c0-5.4-0.2-10.8-0.5-16.2l0,0c10-5,19.6-10.6,28.9-16.7l0,0c2.1,1.4,4.3,2.8,6.5,4.1c1,0.6,1.9,1.2,2.9,1.8
	c1.7,1,3.5,2.1,5.3,3.1c1.8,1,3.5,2,5.3,3c0.5,0.3,0.9,0.5,1.4,0.7l0.2,0.1c0.5,0.2,0.9,0.3,1.4,0.5l0.3,0.1
	c1.1,0.3,2.2,0.4,3.3,0.4c0.3,0,0.7,0,1,0c1.3-0.1,2.6-0.4,3.9-0.8c1.3-0.5,2.4-1.2,3.5-2l8.6-6.8c2.8-2.3,5.5-4.7,8.3-7.1l0.4-0.4
	l0,0c1.1-1,2-2.1,2.8-3.3c0.7-1,1.2-2.1,1.5-3.3c0.1-0.4,0.2-0.8,0.3-1.1c0.6-2.3,0.7-4.7,0.3-7c-0.1-0.8-0.3-1.6-0.6-2.3
	c-0.2-0.7-0.5-1.4-0.7-2c-1-2.9-2-5.8-3-8.6c-1.2-3.2-2.4-6.4-3.7-9.5l0,0c7.8-8,15.1-16.4,22-25.2l0,0c3.6,0.9,7.2,1.7,10.8,2.5
	c2,0.5,4,0.9,6,1.3s4,0.8,6,1.1c0.4,0.1,0.7,0.1,1.1,0.2h0.3h0.8h0.4c0.3,0,0.7,0,1,0h0.3c0.4,0,0.8-0.1,1.2-0.2l0.3-0.1
	c0.3-0.1,0.6-0.2,0.9-0.2l0.3-0.1c0.4-0.1,0.8-0.3,1.1-0.4s0.6-0.3,0.9-0.4c0.6-0.3,1.2-0.6,1.7-1c0.3-0.2,0.5-0.4,0.8-0.6
	s0.5-0.4,0.8-0.7s0.5-0.5,0.7-0.7c0.5-0.5,0.9-1,1.2-1.6l5.9-9.2l0.1-0.1l0,0l1.4-2.2l1.4-2.4l2.7-4.7c0.8-1.4,1.4-3,1.8-4.5
	c0.4-1.5,0.5-3.1,0.4-4.7c-0.2-2.4-0.8-4.7-2-6.8c-0.4-0.7-0.8-1.4-1.3-2c-2.3-3-4.7-6-7-8.9l-3.6-4.4l-3-3.5l0,0
	c1.1-2.4,2.2-4.8,3.3-7.2c0.1-0.3,0.3-0.6,0.4-0.8c1-2.2,1.9-4.3,2.8-6.5c0.1-0.2,0.2-0.4,0.3-0.7c1-2.6,2-5.2,3-7.8
	c0-0.1,0.1-0.2,0.1-0.4c0.9-2.5,1.8-5,2.7-7.5l5-0.5c2-0.2,4-0.4,6-0.6l6.1-0.8c2-0.3,4.1-0.6,6.1-0.9c3.7-0.6,7-2.7,9.1-5.9
	c0.9-1.3,1.6-2.8,2-4.3c0.1-0.4,0.3-0.9,0.4-1.3c0.3-1.3,0.6-2.7,0.9-4l1.2-5.3l1.2-5.3c0.1-0.4,0.2-0.9,0.3-1.3s0.2-1,0.3-1.6
	c0.1-0.7,0.3-1.5,0.4-2.2c0-0.1,0-0.2,0-0.3c0.3-1.6,0.4-3.3,0.2-4.9c0-0.5-0.1-0.9-0.2-1.4c-0.2-1.1-0.5-2.2-0.9-3.2
	c-0.4-1.1-1-2.1-1.7-3.1c-0.7-1-1.5-1.9-2.4-2.7c-0.6-0.5-1.2-1-1.9-1.5c-6.1-4-12.2-7.8-18.3-11.4c0.3-2.7,0.6-5.4,0.8-8.1v-0.1
	c0.1-1.3,0.2-2.5,0.3-3.8c0.1-1.5,0.2-3.1,0.3-4.6c0-0.9,0.1-1.7,0.1-2.5c0.1-1.9,0.2-3.8,0.2-5.8c0-0.4,0-0.8,0-1.2
	c0.1-2.3,0.1-4.5,0.1-6.8c0-0.1,0-0.3,0-0.5l0,0c7-3.2,14-6.5,21-10.1c0.6-0.3,1.2-0.6,1.7-1c0.3-0.2,0.5-0.4,0.8-0.6
	c1-0.8,1.9-1.8,2.6-2.9c0.2-0.3,0.4-0.6,0.5-0.9c0.5-0.9,0.9-2,1.2-3c0.1-0.5,0.2-1,0.3-1.6c0-0.1,0-0.2,0-0.3
	c0.1-0.6,0.1-1.3,0.1-1.9l0,0c0-0.3,0-0.7,0-1l-0.4-5.5c-0.1-1.3-0.2-2.6-0.3-4c0-0.5-0.1-1-0.2-1.5l-1.4-10.9
	c-0.2-1.6-0.6-3.2-1.3-4.7c-0.7-1.4-1.6-2.8-2.7-4c-1-1.2-2.2-2.2-3.5-3.1c-0.3-0.2-0.7-0.4-1-0.6c-0.7-0.4-1.4-0.7-2.2-0.9
	c-0.4-0.1-0.8-0.2-1.1-0.4c-3.7-1-7.3-1.9-11-2.7c-3.3-0.7-6.7-1.5-10-2.1l0,0c-0.8-3.7-1.7-7.5-2.7-11.2c-1.9-7.1-4-14.1-6.4-21
	l0,0c2.7-2.5,5.4-5,8-7.7c1.5-1.4,2.9-2.9,4.3-4.3s2.8-2.9,4.2-4.4c0.3-0.3,0.6-0.6,0.8-0.9c0.6-0.7,1-1.5,1.5-2.3
	c0.3-0.6,0.5-1.2,0.7-1.8c0.1-0.3,0.2-0.6,0.3-1s0.1-0.6,0.2-1c0.2-1,0.2-2,0.2-3c0-0.3,0-0.7-0.1-1c-0.1-0.6-0.2-1.2-0.3-1.8
	c-0.1-0.4-0.2-0.8-0.3-1.1c-0.1-0.3-0.2-0.7-0.4-1c-0.8-1.7-1.5-3.3-2.3-5c-2.2-5-4.5-10-7.1-14.8c-0.3-0.6-0.7-1.2-1-1.8
	c-0.5-0.8-1.1-1.6-1.8-2.3l0,0c-0.5-0.6-1.1-1.1-1.8-1.6c-0.6-0.5-1.3-0.9-2-1.3l0,0c-0.3-0.2-0.7-0.4-1-0.5l-0.3-0.1
	c-0.2-0.1-0.5-0.2-0.7-0.3l-0.4-0.1l-0.7-0.2l-0.4-0.1l-0.7-0.2l-0.4-0.1c-0.2,0-0.5-0.1-0.7-0.1l-0.4-0.1c-0.3,0-0.5-0.1-0.8-0.1
	h-0.3c-0.4,0-0.7,0-1.1,0s-0.8,0-1.2,0.1c-3.8,0.3-7.6,0.6-11.3,1c-3.4,0.4-6.7,0.7-10.1,1.2l0,0c-1.4-2.3-2.8-4.5-4.2-6.7
	c-0.2-0.3-0.4-0.6-0.6-1c-1.2-1.9-2.5-3.8-3.8-5.7c-0.3-0.4-0.6-0.9-0.9-1.3c-1.3-1.8-2.6-3.6-3.9-5.4l-0.8-1.1
	c-1.6-2.1-3.2-4.2-4.8-6.3l0,0c0.9-1.6,1.7-3.2,2.6-4.9s1.7-3.3,2.5-4.9c0.9-1.8,1.8-3.7,2.7-5.6c0.9-1.9,1.8-3.7,2.6-5.6
	c0.8-1.8,1.2-3.7,1.2-5.7c0-1-0.1-2-0.4-2.9c-0.1-0.4-0.2-0.9-0.4-1.3c-0.3-0.7-0.6-1.4-0.9-2.1c-0.1-0.2-0.2-0.4-0.3-0.6
	c-0.5-0.8-1-1.5-1.6-2.2c-2.4-2.6-4.9-5.2-7.4-7.8l0,0l-0.1-0.1l-3.8-4l-3.9-3.6c-1.5-1.4-3.2-2.6-5.1-3.4c-1.1-0.5-2.2-0.8-3.4-1.1
	c-1-0.2-1.9-0.3-2.9-0.3c-2.2,0-4.4,0.5-6.4,1.3c-6.7,2.9-13.2,5.9-19.5,9l0,0c-2.1-1.7-4.2-3.4-6.4-5.1l-0.7-0.5
	c-1.9-1.5-3.9-3-5.8-4.4l-0.3-0.2c-0.2-0.1-0.4-0.3-0.6-0.4c-2-1.4-4-2.9-6-4.3l-0.6-0.4c-2.2-1.5-4.4-3-6.7-4.5
	c1.2-7.6,2.2-15.3,3.1-23.2c0.2-2.3-0.2-4.6-1.1-6.7c-0.3-0.6-0.6-1.2-0.9-1.7c-0.7-1.1-1.6-2.1-2.6-3c-0.8-0.7-1.6-1.3-2.5-1.8
	l-2.4-1.4l-2.4-1.3l-4.9-2.5c-1.6-0.8-3.2-1.7-4.9-2.5s-3.3-1.6-4.9-2.3l0,0c-0.5-0.2-1-0.4-1.6-0.6l-0.4-0.1
	c-0.5-0.2-1.1-0.3-1.6-0.4h-0.2c-0.5-0.1-1-0.2-1.5-0.3h-0.4c-0.5-0.1-1.1-0.1-1.6-0.1h-0.4h-1h-0.5l-0.9,0.1l-0.5,0.1
	c-0.3,0.1-0.6,0.1-0.9,0.2l-0.4,0.1c-0.4,0.1-0.8,0.3-1.3,0.4l-0.3,0.1l-1,0.4l-0.4,0.2c-0.3,0.1-0.5,0.3-0.8,0.4l-0.4,0.3l-0.8,0.5
	l-0.3,0.3c-0.4,0.3-0.7,0.6-1.1,0.9l-3.7,3.4c-4.1,3.8-8,7.6-11.8,11.5l0,0c-3.9-1.4-7.7-2.8-11.7-4.1l-0.5-0.2
	c-2.3-0.8-4.7-1.5-7-2.2l-1.2-0.3c-2.2-0.6-4.4-1.3-6.5-1.9l-0.9-0.3l-4.1-1.1c-0.3-1.9-0.7-3.8-1-5.7c-1.1-5.7-2.3-11.4-3.6-17.2
	c-0.3-1.3-0.8-2.5-1.5-3.7c-0.3-0.6-0.7-1.1-1.1-1.6c-0.4-0.5-0.9-1-1.3-1.4c-2-1.8-4.5-3-7.1-3.4c-7.1-1.4-14.4-2.1-21.6-3.1
	c-0.4-0.1-0.7-0.1-1.1-0.1h-0.9l-1.1,0.1H406c-0.5,0.1-1,0.1-1.4,0.2l0,0c-0.4,0.1-0.8,0.2-1.2,0.3c-0.8,0.2-1.5,0.5-2.3,0.8
	c-0.4,0.2-0.7,0.3-1.1,0.5c-1.7,0.9-3.3,2.1-4.6,3.6l-0.1,0.2c-0.7,0.8-1.4,1.8-1.9,2.7l-1.5,2.7l-1.2,2.3l-2.6,5.1
	c-1.5,3-3,6.1-4.5,9.1l0,0l-2.5-0.1c-2,0-4-0.1-6.1-0.1l0,0c-2.3,0-4.5,0-6.8,0.1l-3.5,0.1l-3,0.1c-1.6,0.1-3.1,0.1-4.7,0.3
	l-1.4,0.1c-1.7,0.1-3.4,0.2-5,0.4h-0.4l0,0c-0.9-1.6-1.8-3.2-2.7-4.8c-0.9-1.6-1.8-3.2-2.8-4.8c-2.1-3.6-4.2-7-6.4-10.5l0,0
	c-0.3-0.4-0.6-0.9-0.9-1.3l-0.1-0.2c-0.3-0.4-0.6-0.7-1-1.1l-0.2-0.2c-0.4-0.3-0.8-0.6-1.2-0.9l-0.2-0.1c-0.4-0.3-0.9-0.6-1.3-0.8
	l0,0c-0.5-0.2-0.9-0.5-1.4-0.7l-0.2-0.1c-0.5-0.2-1-0.3-1.4-0.5l-0.3-0.1c-0.5-0.1-1-0.2-1.5-0.3h-0.2c-0.5-0.1-1.1-0.1-1.6-0.1l0,0
	H326h-0.3c-0.3,0-0.7,0.1-1,0.1l-10.8,1.9l-2.7,0.5H311c-0.7,0.1-1.4,0.3-2.1,0.4l-0.3,0.1l-5.3,1.2c-1,0.2-1.9,0.5-2.9,0.9
	c-1.4,0.6-2.7,1.3-3.9,2.3c-0.6,0.4-1.1,0.9-1.6,1.4c-1.6,1.7-2.9,3.8-3.6,6.1c-0.2,0.8-0.4,1.5-0.6,2.3c-0.6,3.3-1.1,6.7-1.6,10
	c-0.3,2.2-0.6,4.4-0.9,6.6c-0.2,1.6-0.4,3.1-0.6,4.7c-2,0.6-4,1.3-6,2l0,0l-1.5,0.5l0,0c-1.7,0.6-3.4,1.2-5.1,1.8l0,0l-1.8,0.6
	c-3.6,1.3-7.2,2.8-10.8,4.3c-1.5,0.6-3,1.2-4.4,1.9l-1.6,0.7l0,0c-5.7-5.2-11.6-10.2-17.8-15.2c-1.7-1.4-3.7-2.3-5.8-2.6l-0.3-0.1
	c-0.3-0.1-0.7-0.1-1-0.1l0,0c-0.4,0-0.7,0-1,0h-0.2c-0.5,0-1,0-1.4,0.1h-0.2c-0.5,0.1-1,0.1-1.5,0.3l-0.3,0.1
	c-0.5,0.1-1,0.3-1.4,0.4l-0.2,0.1c-0.5,0.2-1,0.4-1.5,0.6l-2.6,1.3c-0.4,0.2-0.8,0.4-1.2,0.7l-1.2,0.7l-4.7,2.7l-4.7,2.7
	c-0.8,0.5-1.6,0.9-2.4,1.4l-2.3,1.5c-0.7,0.4-1.4,0.9-2,1.5c-1.8,1.6-3.3,3.5-4.4,5.7c-0.7,1.4-1.2,2.9-1.4,4.5
	c-0.1,0.4-0.1,0.8-0.1,1.2c-0.1,1.2,0,2.4,0.2,3.6c1.2,7.2,2.5,14.2,4,21.2c-9,6.6-17.6,13.7-25.8,21.3c-7.1-3-14.3-5.9-21.7-8.6
	c-1.2-0.5-2.6-0.7-3.9-0.8l0,0c-0.3,0-0.5,0-0.8,0h-0.4h-0.6h-0.3l-0.6,0.1h-0.3c-0.3,0.1-0.6,0.1-0.9,0.2l0,0
	c-1.3,0.3-2.5,0.8-3.6,1.5c-0.6,0.3-1.1,0.7-1.7,1.1c-0.5,0.4-1,0.9-1.5,1.4c-1.3,1.3-2.5,2.6-3.8,4l-3.6,4.1
	c-2.4,2.8-4.8,5.5-7.1,8.3c-2,2.6-3.3,5.6-3.7,8.9c-0.1,0.8-0.1,1.6-0.1,2.4c0,1.7,0.4,3.4,1,5c0.2,0.6,0.5,1.2,0.8,1.8
	c3.4,6.5,7,12.8,10.7,18.9c-1.6,2.3-3.1,4.6-4.7,6.9c-4.6,7-8.9,14.1-12.9,21.5c-3.8-0.3-7.7-0.5-11.6-0.7
	c-3.9-0.2-7.8-0.3-11.7-0.4h-0.7h-0.4l-0.5,0h-0.4l-0.5,0.1c-1.7,0.3-3.4,0.9-4.9,1.9c-0.3,0.2-0.5,0.4-0.8,0.6
	c-1.9,1.5-3.3,3.3-4.3,5.5c-1.2,2.4-2.2,4.8-3.2,7.3l0,0c-1.2,3-2.4,6-3.6,8.9l0,0l-1.6,4c-0.6,1.5-0.9,3.2-1,4.8
	c-0.1,2.4,0.2,4.8,1.1,7c0.5,1.2,1.1,2.4,1.8,3.4l0,0c0.6,0.9,1.3,1.7,2.1,2.4l2.1,1.9c2.1,1.9,4.3,3.8,6.4,5.7
	c1.3,1.1,2.6,2.2,3.8,3.3s2.6,2.2,3.9,3.3l0,0c-0.7,2.6-1.4,5.1-2.1,7.7c-0.1,0.5-0.2,0.9-0.3,1.4c-0.4,1.7-0.8,3.4-1.2,5.1
	c-0.9,3.8-1.7,7.7-2.4,11.6c-0.4,2.3-0.8,4.5-1.2,6.8l0,0c-7.6,1.9-14.9,4.1-22.4,6.6c-1.6,0.5-3,1.3-4.3,2.4
	c-0.3,0.2-0.5,0.4-0.7,0.6c-0.5,0.4-0.9,0.9-1.3,1.5c-0.4,0.5-0.8,1.1-1.1,1.6c-0.2,0.3-0.3,0.6-0.5,0.9s-0.3,0.6-0.4,0.9
	c-0.5,1.3-0.8,2.6-0.9,4l-0.8,10.1l-0.1,0.8c0,0.1,0,0.1,0,0.2c-0.2,1.8-0.2,3.5-0.2,5.3l-0.1,5.5c0,1.6,0.1,3.3,0.6,4.9
	c0.1,0.4,0.2,0.8,0.3,1.2c0.4,1.1,0.9,2.2,1.5,3.2c0.9,1.3,1.9,2.5,3.1,3.6c1.2,1,2.5,1.9,4,2.6c6.6,2.9,13.2,5.7,19.8,8.3l0,0
	c0.1,1.4,0.2,2.8,0.3,4.2c0.7,9.8,1.8,19.5,3.4,29c-6.4,4.3-12.8,8.7-19.1,13.5c-1.8,1.4-3.3,3.2-4.1,5.3c-0.1,0.3-0.2,0.6-0.3,0.9
	s-0.2,0.6-0.3,0.9c-0.2,0.6-0.3,1.3-0.4,2c-0.2,1.7-0.1,3.4,0.3,5c0.2,0.9,0.4,1.8,0.6,2.7s0.4,1.8,0.7,2.6l1.4,5.3l1.5,5.3
	c0.5,1.7,0.9,3.5,1.6,5.2c0.3,0.8,0.6,1.6,1,2.3c1.1,2.2,2.6,4.1,4.4,5.6c1.2,1,2.6,1.8,4,2.4c1.5,0.6,3,1,4.6,1.1
	c3.6,0.3,7.2,0.6,10.8,0.8s7.2,0.4,10.7,0.5c4.2,10.3,8.9,20.4,14.2,30.2c-1.2,1.5-2.3,3.1-3.5,4.6c-3.4,4.7-6.8,9.4-10.2,14.3
	c-0.4,0.6-0.7,1.1-1,1.7c-0.9,1.8-1.3,3.7-1.3,5.7c0,0.7,0.1,1.3,0.2,2c0.3,2,1,3.9,2.1,5.6c1.9,3.1,4,6.1,6,9.1s4.2,5.9,6.3,8.9
	c0.7,1,1.6,1.9,2.5,2.7c0.3,0.3,0.6,0.5,1,0.8c0.3,0.2,0.7,0.5,1,0.7c0.5,0.3,1,0.6,1.6,0.9c0.5,0.3,1.1,0.5,1.6,0.7
	c0.4,0.2,0.8,0.3,1.3,0.4l0.4,0.1l0.9,0.2l0.5,0.1c0.3,0,0.6,0.1,0.9,0.1h0.5c0.3,0,0.6,0,0.9,0h0.7h0.8h0.4l0.8-0.1h0.3
	c0.4-0.1,0.7-0.1,1.1-0.2c7-1.7,14-3.7,20.8-5.8l0,0c5.5,6.3,11.2,12.4,17.3,18.2c2,1.9,4,3.9,6.1,5.7c-1.2,3.5-2.3,7-3.4,10.5
	c-1.2,3.9-2.3,7.8-3.4,11.8c-0.7,2.6-0.6,5.3,0.2,7.8c0.4,1.3,1,2.5,1.8,3.5c0.2,0.3,0.4,0.5,0.6,0.8c0.4,0.5,0.9,1,1.4,1.5
	c0.3,0.2,0.5,0.5,0.8,0.7l4.3,3.4c1.4,1.1,2.8,2.3,4.3,3.3l8.9,6.3c2.7,1.9,5.8,3,9.1,3c0.3,0,0.5,0,0.8,0h0.5l0.6,0
	c0.2,0,0.4,0,0.5-0.1s0.4-0.1,0.6-0.1l0.5-0.1c0.2,0,0.4-0.1,0.6-0.2s0.3-0.1,0.5-0.1l0.6-0.2c0.1,0,0.3-0.1,0.5-0.2l0.7-0.3
	l0.4-0.2l0.7-0.4l0.3-0.2c0.3-0.2,0.7-0.4,1-0.6c6-3.8,12-8,17.8-12.2l0,0c2.9,1.7,5.9,3.3,8.8,4.9c6.9,3.7,13.9,7.1,21,10.2l0,0
	c0,1.9,0,3.8,0.1,5.7s0.1,3.6,0.1,5.4c0.1,3.9,0.4,7.9,0.6,11.9c0,0.1,0,0.2,0,0.4c0.1,0.8,0.2,1.5,0.4,2.3c0.1,0.3,0.2,0.6,0.3,0.9
	c0.4,1.1,0.9,2.2,1.5,3.3c0.2,0.3,0.4,0.5,0.6,0.8c0.6,0.8,1.3,1.5,2,2.1c0.3,0.2,0.5,0.5,0.8,0.7c1.1,0.8,2.3,1.4,3.6,1.8l10.4,3.5
	l1.3,0.4l1.4,0.3l2.6,0.8l5.3,1.5c0.4,0.1,0.8,0.2,1.2,0.3l0.4,0.1l0.8,0.1h0.5l0.7,0.1h0.5h0.6c0.5,0,1.1,0,1.6-0.1h0.4
	c0.5-0.1,0.9-0.1,1.4-0.2l0.3-0.1c0.5-0.1,1-0.3,1.5-0.5l0.4-0.1c0.5-0.2,0.9-0.3,1.3-0.5l0.2-0.1c0.5-0.2,0.9-0.5,1.4-0.8l0.3-0.2
	c0.4-0.3,0.8-0.6,1.2-0.9l0.1-0.1c0.4-0.3,0.8-0.7,1.2-1.1l0.2-0.2c0.4-0.4,0.7-0.8,1.1-1.2l0,0c3.4-4.3,6.6-8.5,9.7-12.9
	c1-1.5,2.1-2.9,3.1-4.4l0,0c2.6,0.5,5.1,1,7.7,1.4l1.1,0.2c2.1,0.3,4.3,0.7,6.4,1l1.8,0.3c1.6,0.2,3.3,0.4,5,0.6l3.1,0.3l3.3,0.3
	c1.5,0.2,3.1,0.3,4.7,0.4c0.3,1,0.7,1.9,1,2.9c0.7,2,1.5,4,2.2,6c1.6,4.3,3.3,8.7,5.1,13c0.1,0.3,0.3,0.6,0.4,0.9
	c0.6,1.2,1.4,2.2,2.3,3.2c2.7,2.6,6.2,4,9.9,4l2.7,0.1c0.9,0,1.8,0,2.7-0.1l5.5-0.1l5.5-0.1c1.8,0,3.6-0.1,5.5-0.3
	c3.2-0.2,6.4-1.4,9-3.3c2.6-1.9,4.5-4.5,5.6-7.5c2.4-6.9,4.6-13.7,6.6-20.5l0,0c2.6-0.4,5.2-0.7,7.8-1.2l0.9-0.2l0,0h0.3l0,0
	c2.1-0.3,4.1-0.7,6.2-1.1l0,0l2.1-0.4l0,0l3.4-0.7c1.5-0.3,3-0.7,4.6-1l2.8-0.6l0,0c1.6-0.4,3.2-0.8,4.8-1.2c2.3,2.9,4.6,5.7,7,8.6
	c2.6,3.1,5.3,6.2,8,9.3c1.8,2,4.1,3.4,6.6,4.1C470.5,683,471.6,683.1,472.7,683.1z M375,656.7c-22.9,0-45.8-2.8-68.1-8.3
	c-1.2-0.3-2.3-0.6-3.5-0.9c-5.4-1.4-10.8-3-16.2-4.8c-7.4-2.4-14.7-5.2-21.9-8.2c-3.1-1.3-6.1-2.7-9.1-4.1
	c-8.1-3.8-16-7.9-23.7-12.4c-39.2-23-72.2-55.1-96.4-93.6c-1.5-2.3-2.9-4.6-4.3-7c-1-1.7-1.9-3.3-2.9-5
	c-23.5-42-35.8-89.3-35.8-137.5c0-7,0.3-13.9,0.8-20.8c0-0.4,0-0.7,0.1-1c0.5-6.5,1.2-13,2.2-19.4c0.1-0.7,0.2-1.4,0.3-2.1
	c1.3-8.3,3-16.6,5-24.7c0.9-3.5,1.8-6.9,2.8-10.4c0.9-3.1,1.9-6.2,2.9-9.3c2.4-7.4,5.1-14.7,8.2-21.9
	c28.6-67.5,82.4-121.3,149.9-149.9c7.2-3,14.5-5.8,21.9-8.2c3.1-1,6.2-2,9.3-2.9c1.3-0.4,2.5-0.7,3.8-1.1
	c71.4-19.7,147.6-10.4,212.2,25.8c1.7,0.9,3.3,1.9,5,2.9c6.4,3.8,12.6,7.8,18.7,12c1.1,0.8,2.1,1.5,3.2,2.3c2.7,2,5.4,4,8.1,6.1
	c9.4,7.3,18.3,15.2,26.7,23.6l0,0c8,8,15.6,16.5,22.6,25.5c5.6,7.1,10.8,14.5,15.7,22.1c1.9,3,3.8,6.1,5.6,9.2
	c4.5,7.7,8.6,15.6,12.4,23.7c1.4,3,2.8,6,4.1,9.1c2.8,6.5,5.3,13.1,7.5,19.8c30.3,89.9,13.3,189-45.3,263.6
	c-7,8.9-14.6,17.4-22.6,25.5C521.4,627.1,449.7,656.8,375,656.7z"/>
<polygon points="435.6,663.5 435.6,663.5 435.6,663.5 "/>
<polygon points="440.2,662.5 440.2,662.5 440.2,662.5 "/>
<path d="M446.3,665.2c-6.6,1.6-13.4,3-20.2,4.2l1.2,1.9l4.7,6.7c2.9,4,7.9,5.7,12.6,4.5c2.7-0.7,5.4-1.5,8-2.3l3.9-1.3l0.9-0.3
	c-2-2.3-3.9-4.5-5.8-6.8C450,669.7,448.1,667.5,446.3,665.2z"/>
<path d="M752.1,553.7c-0.3-2.7-0.7-5.4-1-8.1s-0.9-5.4-1.4-8c-0.4-2.4-1.6-4.6-3.3-6.3c-1.6-1.7-3.7-2.8-6-3.3
	c-5.3-1-10.6-1.8-15.9-2.4c-2.3-7.6-5.2-15-8.7-22.2c3.7-4.4,7.3-8.9,10.8-13.7c2.3-3.3,2.4-7.7,0.3-11.1l-4.4-6.9l-4.7-6.6
	c-2.9-3.9-7.9-5.7-12.6-4.5c-2.7,0.7-5.4,1.5-8,2.3l-4,1.3l-3.4,1.2l-0.6-0.7c-2.7,3.7-6.7,6.1-11.3,6.8c-3.9,0.6-7.9,1.1-11.5,1.5
	c1.2,1.1,2.4,2.3,3.6,3.5c5.3,5.3,10.1,11,14.5,17.1l-30,17.2c1.2,1.6,2.5,3.1,3.7,4.7c2.4,3.2,3.8,7,4.1,10.9c0.2,2,0,4-0.5,6
	c-0.5,2-1.2,3.8-2.3,5.6l-1.9,3.2l40.6-23.3c15.1,34.9,14.7,74.5-0.9,109.1l-94.4-54.5l17.4-10l-2.5-0.5c-2.7-0.6-5.5-1.3-8.4-1.9
	c-5.9,7.5-12.2,14.7-18.9,21.6c0.9,2.2,1.8,4.7,2.8,7.2c1.3,3.5,2.6,7.2,3.8,10.8c0.2,0.7,0.4,1.4,0.6,2.2l85.4,49.3
	c-4,5.4-8.4,10.6-13.2,15.3c-21.7,21.9-50.3,35.5-81,38.7v-81.7l-0.6,0.5c-1.8,1.6-3.7,3.2-5.5,4.7l0,0l0,0l-8.6,6.8
	c-1.4,1.1-2.9,2-4.6,2.6c-1.6,0.6-3.3,0.9-5,1c-0.4,0-0.8,0-1.3,0c-0.8,0-1.5-0.1-2.3-0.2v66.1c-23.7-2.4-46.3-11.1-65.4-25.2
	l-6.2,2.5c-1.2,0.5-2.5,0.9-3.6,1.3c-0.6,0.2-1.1,0.4-1.7,0.6h0l-5.2,1.8c-1.9,0.6-3.9,1-5.9,1c-1.2,0-2.5-0.1-3.7-0.4
	c2.8,2.5,5.6,5,8.5,7.3c-1.5,5.5-2.8,11.3-3.8,17c-0.7,4,1.1,8,4.5,10.2c2.3,1.5,4.6,3,6.9,4.3s4.7,2.8,7.1,4c2.1,1.1,4.6,1.6,7,1.4
	c2.3-0.3,4.6-1.2,6.4-2.7c4.1-3.5,8-7.2,11.8-10.9c7.4,2.9,15,5.3,22.8,7c0.5,2.7,1.1,5.5,1.7,8.2c0.7,2.9,1.4,5.8,2.2,8.7
	c0.5,1.9,1.6,3.6,3.1,4.8c1.5,1.3,3.4,2.1,5.4,2.3l4,0.5l4.1,0.3l4.1,0.3c1.4,0.1,2.7,0.1,4.1,0.1c2.4,0.1,4.8-0.5,6.9-1.8
	c2-1.3,3.6-3.1,4.5-5.2c1.1-2.6,2.2-5.1,3.2-7.7c0.9-2.4,1.8-4.8,2.7-7.3c7.9-0.6,15.8-1.8,23.6-3.5c3.4,4.6,7.1,9.2,10.9,13.6
	c2.7,3,7,4.1,10.8,2.8l3.9-1.3c1.3-0.4,2.5-1,3.8-1.5c2.5-1,5.1-2,7.5-3.1c2.2-1,4.1-2.6,5.4-4.6c1.3-2,1.9-4.3,1.9-6.7
	c-0.2-5.3-0.6-10.7-1.2-16c6.9-4,13.5-8.5,19.7-13.5c5.1,2.7,10.3,5.2,15.7,7.5c1.8,0.8,3.8,1,5.8,0.6c2-0.4,3.8-1.4,5.2-2.8
	l1.5-1.4l1.4-1.5l2.8-3c1.9-1.9,3.6-4,5.4-6.1c0.8-0.9,1.5-2,2-3.1c0.5-1.1,0.8-2.3,0.9-3.4c0.3-2.3-0.2-4.7-1.2-6.7
	c-2.6-4.8-5.2-9.5-8-14c4.5-6.6,8.5-13.5,11.9-20.6c5.7,0.2,11.5,0.2,17.4-0.1c4-0.3,7.5-2.9,8.9-6.7l2.6-7.7l2.2-7.8
	c0.6-2.4,0.5-4.8-0.3-7.1c-0.7-2.2-2.1-4.2-4.1-5.6c-4.4-3.2-8.8-6.2-13.3-9.1c1.2-7.8,1.8-15.7,1.8-23.5v-0.2
	c5.2-2.3,10.4-4.8,15.7-7.6C750.5,561.6,752.5,557.7,752.1,553.7z"/>
<path d="M98.3,36.1C35.9,64.2,8.1,137.6,36.2,200c6.2,13.7,14.8,26.2,25.4,36.8c3.6,3.6,7.4,7,11.4,10.2c0.9-2.2,1.9-4.4,2.9-6.5
	c1.4-3.1,3.7-5.8,6.5-7.7c0.9-0.6,1.9-1.1,2.9-1.5c-5.8-4.5-11-9.5-15.6-14.9l0.1-0.3c1.2-3.1,2.8-6.4,4.5-9.9c0.7-1.4,1-2.9,1-4.4
	c0-0.7-0.2-1.5-0.4-2.1c-0.2-0.7-0.5-1.4-0.9-2.1l-1.3-2l-1.2-2.1c-0.1-0.2-0.3-0.5-0.4-0.7c-0.3-0.4-0.5-0.9-0.8-1.4l-1.1-2.1
	c-0.6-1.1-1.4-2-2.5-2.7c-1.1-0.7-2.3-1.1-3.6-1.1c-3.8-0.2-7.7-0.5-11.7-1l-0.3,0c-4-11.2-6.1-23-6.1-34.9l0.2-0.1
	c3.2-1.7,6.5-3.3,9.8-4.6c1.4-0.6,2.7-1.6,3.6-2.8l0,0c0.4-0.6,0.8-1.2,1-1.9c0.3-0.7,0.5-1.4,0.6-2.1l0.3-2.4l0.4-2.3
	c0.1-0.3,0.1-0.6,0.2-0.9c0.1-0.5,0.2-1,0.3-1.5l0.5-2.3c0.1-0.6,0.2-1.2,0.1-1.8c0-0.6-0.1-1.2-0.3-1.8c-0.4-1.2-1.1-2.3-2-3.1
	c-2.7-2.4-5.4-5.1-8.3-8.3l-0.2-0.2c3.6-9.8,8.8-19.3,15.6-28c0.7-0.9,1.5-1.9,2.2-2.8l0.2,0.1c3.9,0.9,7.2,1.8,10.5,2.8
	c0.9,0.3,1.8,0.4,2.7,0.4c0.6,0,1.2-0.1,1.8-0.2l0,0c1.5-0.3,2.8-1,3.9-2.1c0.7-0.7,1.5-1.4,2.3-2c0.4-0.4,0.9-0.8,1.3-1.1
	c0.8-0.7,1.7-1.4,2.5-2c0.4-0.3,0.8-0.6,1.2-0.9c2-1.5,3.1-4.1,2.7-6.6c-0.5-3.8-0.9-7.8-1-11.6l0-0.2c10.4-5.9,21.7-10,33.3-12.1
	l0.2,0.2c1.3,1.7,2.3,3,3.2,4.4c1.1,1.6,2.1,3.1,3,4.5c0.8,1.3,2,2.3,3.3,3c1.3,0.7,2.8,1,4.3,1c0.8,0,1.6,0,2.4,0
	c0.8,0,1.6,0,2.4,0c1.6,0,3.2,0,4.8,0.1c0.2,0,0.3,0,0.5,0c1.1,0,2.1-0.3,3.1-0.8c1.1-0.6,2.1-1.5,2.7-2.5c2.2-3.4,4.4-6.7,6.7-9.6
	l0.2-0.2c11.5,2.1,22.8,6.1,33.3,12.1l0,0.3c-0.1,1.9-0.2,3.7-0.3,5.4c-0.1,1.7-0.3,3.4-0.6,5.4c-0.4,3,0.8,6.1,3.3,7.9
	c2.5,1.9,5,4,7.3,6.2c1.3,1.2,3,1.9,4.8,1.9c0.7,0,1.5-0.1,2.2-0.3c3.4-1.1,7-2,11.3-3l0.3-0.1c0.1,0.1,0.2,0.3,0.3,0.4l0.6,0
	c3.9,0,7.7,1.3,10.8,3.8c5.4,4.4,10.8,9,16,13.6c1.8-0.8,3.6-1.5,5.4-2.2C234.1,35.9,160.8,8.1,98.3,36.1z"/>
<path d="M494.7,623.7c8-3.9,15.9-8.1,23.5-12.7c9.5-5.7,18.6-12.1,27.3-18.9c6.9-5.5,13.6-11.3,20-17.3c3.2-3,6.3-6.2,9.4-9.4
	c80.9-84.9,99.3-211.6,46-316.1c-1-2-2.1-4-3.1-5.9c-14.8-27.2-34.1-51.8-57.1-72.7c-3.3-3-6.6-5.9-10-8.7
	c-117.7-97-291.7-80.2-388.6,37.5c-11.3,13.7-21.2,28.4-29.6,43.9c-1.1,2-2.1,3.9-3.1,5.9c-53.3,104.4-34.9,231.2,46,316.1
	c3,3.2,6.2,6.3,9.4,9.4c16,15.3,33.8,28.6,53,39.6c21.5,12.3,44.5,21.7,68.5,27.9c4.4,1.1,8.9,2.2,13.4,3.1
	c18.3,3.7,36.9,5.6,55.6,5.6c7.1,0,14.2-0.3,21.2-0.8c7-0.5,13.9-1.3,20.8-2.4c4.6-0.7,9.1-1.5,13.6-2.4c4.5-0.9,8.9-1.9,13.4-3.1
	c4.4-1.1,8.8-2.4,13.1-3.7c4.3-1.3,8.6-2.8,12.8-4.3c2.1-0.8,4.2-1.6,6.3-2.4c4.2-1.7,8.3-3.4,12.4-5.2
	C490.6,625.7,492.6,624.7,494.7,623.7z M471.1,602.5c-126,53.4-271.6-5.4-325-131.5s5.4-271.6,131.5-325s271.6,5.4,325,131.5
	c39.4,93,18.5,200.6-52.9,272.1C527.2,572.2,500.5,590.2,471.1,602.5L471.1,602.5z"/>
</svg>
