<svg xmlns="http://www.w3.org/2000/svg" viewBox="0 0 471.33 542.43"><title>iso</title><path d="M634.7,312.34V310L397.84,173.3,164.34,308.11V578.83L400,715.73l235.68-135.5Zm-161,262.72-68.54,39.57L403.9,446.81l145.38-83.93.43,79.4-76.5,44.17ZM320.2,574,252.39,613.1,252,533.84l67.81-39.15Zm79.16-308.68L401,268l-3.18,0Zm71.69,44.64L403,349.21l-.43-78.58,68.06-39.29Zm-76.49-41.47.43,79.63-69.42-39.83-.43-79.39Zm-71.77,47.43L400,360.17l76.25-44,69,39.82L399.88,439.89,254.27,355.43ZM247.6,449.13l67.54,39-68.87,39.76-68-38.75Zm-1,82.81,1,1.74h-2Zm4.15-90.23-.43-79.33L395.9,446.83l1.25,167.74-68.94-39.8-.48-88.61ZM481.69,575l-.43-79.66,69,39.31.43,79.9Zm72.13-41.46,0,0h0Zm.55-5.72L485.5,488.59l68.23-39.4,68.87,39.27Zm3.34-85.61-.48-88.59-78.18-45.14-.43-79.35,148.09,85.5.6,167.27ZM468.5,223.33l-68,39.27-71.1-40.54,68.46-39.52Zm-151.36,5.8.43,80.51-75.3,43.47.48,89.58-70.41,40.66V312.73ZM172.34,495,244,535.79l.44,80.31-72.07-41.87Zm81.44,126.59,69.72-40.25,77.7,44.86L477.71,582l69.51,39.87L400,706.49Zm304.86-6.26-.43-80.4L627.36,495l.29,80.66Z" transform="translate(-164.34 -173.3)"/></svg>