<?xml version="1.0" encoding="utf-8"?>
<!-- Generator: Adobe Illustrator 22.1.0, SVG Export Plug-In . SVG Version: 6.00 Build 0)  -->
<svg version="1.1" id="Layer_1" xmlns="http://www.w3.org/2000/svg" xmlns:xlink="http://www.w3.org/1999/xlink" x="0px" y="0px"
	 viewBox="0 0 753.5 753.5" style="enable-background:new 0 0 753.5 753.5;" xml:space="preserve">
<title>line-burst</title>
<g>
	<rect x="194.1" y="572.1" transform="matrix(0.6672 -0.7449 0.7449 0.6672 -362.6799 339.502)" width="9" height="7"/>
	<rect x="210.1" y="554.3" transform="matrix(0.6673 -0.7448 0.7448 0.6673 -344.0399 345.43)" width="9" height="7"/>
	<rect x="202.1" y="563.2" transform="matrix(0.6673 -0.7448 0.7448 0.6673 -353.3665 342.4341)" width="9" height="7"/>
	<path d="M187.7,582.6c-3.6-0.9-7.3,1-8.7,4.5c-0.8,1.9-0.7,3.9,0,5.7c0.8,1.8,2.2,3.3,4.1,4c0.9,0.4,1.9,0.6,2.8,0.6
		c1,0,2-0.2,2.9-0.6c1.8-0.8,3.3-2.2,4-4.1c0.7-1.8,0.7-3.7,0.1-5.4l3.4-3.7l-5.2-4.7L187.7,582.6z"/>
	<rect x="233.4" y="629" transform="matrix(0.4771 -0.8789 0.8789 0.4771 -431.4458 539.809)" width="9" height="7"/>
	<rect x="239.1" y="618.4" transform="matrix(0.4771 -0.8788 0.8788 0.4771 -419.1804 539.309)" width="9" height="7"/>
	<rect x="216.2" y="660.6" transform="matrix(0.4771 -0.8788 0.8788 0.4771 -468.2318 541.2361)" width="9" height="7"/>
	<rect x="256.3" y="586.8" transform="matrix(0.4771 -0.8789 0.8789 0.4771 -382.4073 537.8923)" width="9" height="7"/>
	<rect x="227.7" y="639.5" transform="matrix(0.4771 -0.8789 0.8789 0.4771 -443.7032 540.2881)" width="9" height="7"/>
	<rect x="222" y="650.1" transform="matrix(0.4767 -0.879 0.879 0.4767 -456.0105 541.0397)" width="9" height="7"/>
	<rect x="244.9" y="607.9" transform="matrix(0.4771 -0.8788 0.8788 0.4771 -406.9098 538.8157)" width="9" height="7"/>
	<rect x="250.6" y="597.3" transform="matrix(0.477 -0.8789 0.8789 0.477 -394.6588 538.4089)" width="9" height="7"/>
	<path d="M220.2,672.4l-6.2-3.3l-4.3,7.9l0.1,0c-0.8,0-1.5,0.1-2.3,0.3c-1.9,0.6-3.5,1.9-4.5,3.6c-2,3.6-0.6,8.2,3,10.2
		c1.1,0.6,2.3,0.9,3.5,0.9c2.7,0,5.2-1.4,6.6-3.9c1.4-2.5,1.1-5.6-0.4-7.8l0,0L220.2,672.4z"/>
	<rect x="140.9" y="506.6" transform="matrix(0.8666 -0.499 0.499 0.8666 -235.131 140.5786)" width="9" height="7"/>
	<rect x="130.5" y="512.6" transform="matrix(0.8666 -0.4989 0.4989 0.8666 -239.4853 136.1644)" width="9" height="7"/>
	<rect x="120.1" y="518.5" transform="matrix(0.8665 -0.4992 0.4992 0.8665 -243.9528 131.9165)" width="9" height="7"/>
	<rect x="161.7" y="494.6" transform="matrix(0.8666 -0.499 0.499 0.8666 -226.3803 149.3582)" width="9" height="7"/>
	<rect x="151.3" y="500.5" transform="matrix(0.8665 -0.4992 0.4992 0.8665 -230.8139 145.0914)" width="9" height="7"/>
	<rect x="109.7" y="524.5" transform="matrix(0.8666 -0.499 0.499 0.8666 -248.2614 127.4086)" width="9" height="7"/>
	<path d="M99.1,528.1c-3.6,2.1-4.8,6.6-2.8,10.2c1,1.7,2.6,3,4.5,3.5c0.7,0.2,1.3,0.3,2,0.3c1.3,0,2.6-0.3,3.7-1l0,0
		c3.6-2.1,4.8-6.7,2.7-10.2S102.6,526,99.1,528.1z"/>
	<rect x="506.3" y="101.5" transform="matrix(0.4421 -0.897 0.897 0.4421 190.7606 516.7006)" width="9" height="7"/>
	<rect x="511.6" y="90.7" transform="matrix(0.4421 -0.897 0.897 0.4421 203.3923 515.4627)" width="9" height="7"/>
	<rect x="527.5" y="58.4" transform="matrix(0.4421 -0.897 0.897 0.4421 241.2183 511.7062)" width="9" height="7"/>
	<rect x="516.9" y="80" transform="matrix(0.4421 -0.897 0.897 0.4421 215.987 514.2086)" width="9" height="7"/>
	<path d="M532.1,53.7l6.3,3.1l1-2.1c3.7-0.1,6.8-2.9,7.2-6.6c0.2-2-0.3-4-1.5-5.5c-1.2-1.6-3-2.6-5-2.8c-4.1-0.5-7.8,2.4-8.3,6.5
		c-0.2,1.9,0.3,3.8,1.4,5.3L532.1,53.7z"/>
	<rect x="522.2" y="69.2" transform="matrix(0.4421 -0.897 0.897 0.4421 228.5988 512.9656)" width="9" height="7"/>
	<rect x="479.7" y="155.3" transform="matrix(0.4423 -0.8969 0.8969 0.4423 127.6318 522.9041)" width="9" height="7"/>
	<rect x="485" y="144.6" transform="matrix(0.4421 -0.897 0.897 0.4421 140.2965 521.6758)" width="9" height="7"/>
	<rect x="490.3" y="133.8" transform="matrix(0.4421 -0.897 0.897 0.4421 152.9129 520.4312)" width="9" height="7"/>
	<rect x="605" y="303.5" transform="matrix(0.9577 -0.2876 0.2876 0.9577 -62.5355 188.2943)" width="9" height="7"/>
	<rect x="685.5" y="279.3" transform="matrix(0.9578 -0.2874 0.2874 0.9578 -52.1736 210.2306)" width="9" height="7"/>
	<rect x="674" y="282.8" transform="matrix(0.9578 -0.2873 0.2873 0.9578 -53.6458 207.0226)" width="9" height="7"/>
	<rect x="662.5" y="286.1" transform="matrix(0.9578 -0.2876 0.2876 0.9578 -55.1122 204.0256)" width="9" height="7"/>
	<rect x="616.5" y="300" transform="matrix(0.9578 -0.2874 0.2874 0.9578 -61.0306 191.2735)" width="9" height="7"/>
	<rect x="628" y="296.6" transform="matrix(0.9577 -0.2876 0.2876 0.9577 -59.5831 194.6158)" width="9" height="7"/>
	<rect x="696.9" y="275.9" transform="matrix(0.9578 -0.2873 0.2873 0.9578 -50.6914 213.3105)" width="9" height="7"/>
	<path d="M718.4,266.4L718.4,266.4c-2.7,0.8-4.7,3.1-5.2,5.8l-5.6,1.7l2,6.7l5.6-1.7c1.1,1.1,2.6,1.9,4.2,2.1
		c0.4,0.1,0.8,0.1,1.1,0.1c1.6,0,3.1-0.5,4.4-1.5c1.6-1.2,2.7-2.9,3-4.9s-0.2-4-1.4-5.6C724.7,266.6,721.4,265.5,718.4,266.4z"/>
	<rect x="603.5" y="142.1" transform="matrix(0.7072 -0.707 0.707 0.7072 75.1108 472.5103)" width="9" height="7"/>
	<rect x="612" y="133.5" transform="matrix(0.7072 -0.707 0.707 0.7072 83.6199 476.002)" width="9" height="7"/>
	<rect x="671.3" y="74.1" transform="matrix(0.7072 -0.707 0.707 0.7072 143.0312 500.5651)" width="9" height="7"/>
	<rect x="620.5" y="125.1" transform="matrix(0.707 -0.7072 0.7072 0.707 92.1625 479.6219)" width="9" height="7"/>
	<rect x="628.9" y="116.6" transform="matrix(0.7072 -0.707 0.707 0.7072 100.5869 483.0314)" width="9" height="7"/>
	<rect x="654.4" y="91.1" transform="matrix(0.7071 -0.7071 0.7071 0.7071 126.0572 493.5979)" width="9" height="7"/>
	<rect x="645.9" y="99.6" transform="matrix(0.7071 -0.7071 0.7071 0.7071 117.6112 490.1397)" width="9" height="7"/>
	<rect x="637.4" y="108.1" transform="matrix(0.7072 -0.707 0.707 0.7072 109.0676 486.549)" width="9" height="7"/>
	<rect x="662.9" y="82.6" transform="matrix(0.7071 -0.7071 0.7071 0.7071 134.5616 497.143)" width="9" height="7"/>
	<rect x="722.3" y="23.2" transform="matrix(0.7072 -0.707 0.707 0.7072 193.9128 521.6863)" width="9" height="7"/>
	<rect x="595" y="150.5" transform="matrix(0.7071 -0.7071 0.7071 0.7071 66.6964 469.0444)" width="9" height="7"/>
	<rect x="679.8" y="65.6" transform="matrix(0.7072 -0.707 0.707 0.7072 151.5117 504.0769)" width="9" height="7"/>
	<rect x="586.5" y="159" transform="matrix(0.7072 -0.707 0.707 0.7072 58.1744 465.435)" width="9" height="7"/>
	<rect x="561" y="184.4" transform="matrix(0.7071 -0.7071 0.7071 0.7071 32.7775 454.9597)" width="9" height="7"/>
	<rect x="552.6" y="192.9" transform="matrix(0.7071 -0.7071 0.7071 0.7071 24.2657 451.4286)" width="9" height="7"/>
	<rect x="544.1" y="201.4" transform="matrix(0.7072 -0.707 0.707 0.7072 15.7486 447.8773)" width="9" height="7"/>
	<rect x="730.8" y="14.8" transform="matrix(0.707 -0.7072 0.7072 0.707 202.4894 525.3132)" width="9" height="7"/>
	<rect x="688.3" y="57.2" transform="matrix(0.7072 -0.707 0.707 0.7072 159.9788 507.6275)" width="9" height="7"/>
	<rect x="713.8" y="31.7" transform="matrix(0.7071 -0.7071 0.7071 0.7071 185.4699 518.2313)" width="9" height="7"/>
	<rect x="705.3" y="40.2" transform="matrix(0.7071 -0.7071 0.7071 0.7071 176.9923 514.7095)" width="9" height="7"/>
	<rect x="696.8" y="48.7" transform="matrix(0.707 -0.7072 0.7072 0.707 168.5457 511.2544)" width="9" height="7"/>
	<path d="M752.8,0.7c-2.9-2.9-7.7-2.9-10.6,0c-2,2-2.7,4.9-1.9,7.5l-2.3,2.3l5,5l2.3-2.3c1.5,0.5,3.2,0.5,4.7-0.1
		c1.9-0.7,3.4-2,4.3-3.8C755.7,6.4,755.1,2.9,752.8,0.7z"/>
	<path d="M699.5,294.3l-1.2,0.3v0.1c-2.2,0.9-3.8,2.8-4.4,5l-36.4,8.4c-0.9-3.7-1.9-7.4-2.9-11.1l6.2-1.8l-2-6.7l-6.1,1.8
		c-1.5-4.7-3-9.4-4.7-13.9l20.3-7.8c2.8,2.4,6.9,2.5,9.8,0.1c3.1-2.7,3.5-7.4,0.8-10.6c-2.7-3.1-7.4-3.5-10.6-0.8
		c-1.5,1.2-2.4,2.9-2.6,4.8l-20.3,7.8c-1.2-2.9-2.4-5.8-3.6-8.7l1-0.4c1.3,1,3,1.6,4.6,1.6c1.9,0,3.7-0.7,5.2-2.1
		c1.4-1.4,2.3-3.3,2.3-5.3s-0.7-3.9-2.1-5.3c-1.4-1.4-3.3-2.3-5.3-2.3c-2,0-3.9,0.7-5.3,2.1c-1.4,1.3-2.2,3.1-2.3,5l-1,0.4
		c-5.8-12.3-12.4-24.3-19.8-35.7l20.7-13.8c1.4,0.8,3,1.1,4.6,0.8c2-0.3,3.7-1.3,4.9-2.9c2.5-3.3,1.8-8-1.5-10.5
		c-1.6-1.2-3.6-1.7-5.6-1.4c-2,0.3-3.7,1.3-4.9,2.9c-1.1,1.5-1.7,3.4-1.5,5.3l-20.7,13.8c-1.1-1.6-2.2-3.2-3.4-4.8l101.9-74.8
		c3.3,1.6,7.4,0.6,9.5-2.5c2.3-3.4,1.4-8.1-2-10.4c-1.7-1.1-3.7-1.5-5.6-1.2c-2,0.4-3.7,1.5-4.8,3.2c-1.1,1.6-1.5,3.5-1.2,5.3
		l-101.9,74.8c-7.4-9.8-15.5-19.2-24.1-28l4.6-4.6l-4.9-5l-4.6,4.6c-6.8-6.6-13.9-12.9-21.3-18.9l19.2-24.6c1.6,0.3,3.2,0.1,4.7-0.7
		c1.8-0.9,3.1-2.4,3.8-4.3c1.3-3.9-0.8-8.2-4.7-9.5c-3.9-1.3-8.2,0.8-9.5,4.7c-0.6,1.8-0.5,3.7,0.3,5.5l-19.2,24.6
		c-3.9-3-7.9-5.9-12-8.7l61.5-92.4c1.6,0.2,3.2-0.2,4.6-1c1.7-1,2.9-2.7,3.4-4.6c0.5-1.9,0.2-4-0.8-5.7c-1-1.7-2.7-2.9-4.6-3.4
		c-1.9-0.5-4-0.2-5.7,0.8c-1.7,1-2.9,2.7-3.4,4.6c-0.5,1.8-0.2,3.8,0.7,5.4L534,134.1c-3.9-2.5-7.9-5-11.9-7.3l2.5-4.3
		c1.6,0.1,3.2-0.4,4.5-1.3c1.6-1.1,2.8-2.9,3.1-4.8c0.4-2-0.1-4-1.2-5.6c-1.1-1.6-2.9-2.8-4.8-3.1c-4.1-0.7-8,2-8.7,6
		c-0.3,1.9,0,3.8,1,5.4l-2.5,4.4c-2.7-1.5-5.5-2.9-8.3-4.4l2.8-5.7l-6.3-3.1l-2.8,5.7c-5.2-2.5-10.5-4.8-15.8-7l19.9-50.8
		c3.6-0.4,6.5-3.4,6.7-7.2c0.1-4.1-3.1-7.6-7.2-7.8c-4.2-0.1-7.6,3.1-7.8,7.2c-0.1,1.9,0.6,3.7,1.8,5.2l-19.9,50.7
		c-4.4-1.6-8.8-3.2-13.3-4.6l7.3-23.5c1.6-0.3,3-1.1,4.1-2.3c1.4-1.5,2.1-3.4,2-5.4c-0.1-2-0.9-3.9-2.4-5.2c-1.5-1.4-3.4-2.1-5.4-2
		c-4.1,0.2-7.4,3.7-7.2,7.8c0.1,1.9,0.9,3.7,2.2,5l-7.3,23.5c-26.7-7.9-54.2-11.8-82-11.8c-0.1,0-0.3,0-0.4,0
		c-77.2,0-149.8,30.1-204.4,84.6S87.8,299.6,87.8,376.8c0,1.9,1.6,3.5,3.5,3.5s3.5-1.6,3.5-3.5c0-155.5,126.5-282,282-282
		c0.1,0,0.1,0,0.2,0c27.2,0,54.1,3.9,80.2,11.7l-13.5,43.4c-0.7-0.2-1.4-0.4-2.1-0.6c-1.9-0.5-3.8-1-5.7-1.5
		c-9.5-2.4-19.3-4.3-29-5.5c-2-0.2-4-0.5-5.9-0.7c-3.9-0.4-8-0.7-12-0.9c-4-0.2-8.1-0.3-12.2-0.3c-0.1,0-0.1,0-0.2,0
		c-19.9,0-39.7,2.5-58.9,7.4c-3.8,1-7.5,2-11.2,3.2c-5.5,1.7-11.1,3.7-16.4,5.8c-8.9,3.5-17.6,7.6-26,12.1c-3.3,1.8-6.7,3.7-9.9,5.7
		c-4.8,2.9-9.6,6.1-14.3,9.4c-3.1,2.2-6.1,4.5-9.1,6.8c-3,2.3-5.9,4.8-8.8,7.2c-1.4,1.2-2.8,2.5-4.2,3.8c-4.2,3.8-8.3,7.8-12.2,11.9
		c-3.9,4.1-7.7,8.4-11.3,12.7c-14.6,17.7-26.5,37.3-35.4,58.4c-2.2,5.3-4.3,10.7-6.2,16.2c-12.4,36.9-15.6,76.7-9.2,115.1l-59.9,11
		c-1-1.3-2.4-2.2-3.9-2.6c-1.9-0.5-4-0.3-5.7,0.7c-1.7,1-3,2.6-3.5,4.5s-0.3,4,0.7,5.7c2.1,3.6,6.7,4.8,10.2,2.8
		c1.7-0.9,2.9-2.5,3.4-4.3l59.9-11c0.7,3.4,1.4,6.7,2.2,10l-27.2,7.1c-1.1-1.2-2.5-2-4.1-2.3c-2-0.4-4,0-5.6,1.1
		c-3.4,2.3-4.3,7-2,10.4c1.1,1.7,2.8,2.8,4.8,3.2c2,0.4,4,0,5.6-1.1c1.6-1.1,2.7-2.7,3.1-4.5l27.2-7.1c1.2,4.3,2.5,8.6,3.9,12.9
		c1.9,5.5,3.9,10.9,6.2,16.2c0.3,0.6,0.5,1.3,0.8,1.9l-82.9,37.4c-1.3-1-2.8-1.5-4.4-1.6c-2-0.1-3.9,0.7-5.4,2.1
		c-3,2.9-3.1,7.6-0.2,10.6c2.9,3,7.6,3.1,10.6,0.2c1.4-1.3,2.2-3.1,2.3-5l82.9-37.4c3.9,8.3,8.3,16.5,13.2,24.3L60.1,575.5
		c-1.4-0.8-3-1.1-4.6-0.9c-2,0.2-3.8,1.3-5,2.8c-2.5,3.3-2,8,1.3,10.5c1.6,1.2,3.5,1.8,5.5,1.5c2-0.2,3.8-1.3,5-2.8
		c1.2-1.5,1.7-3.4,1.6-5.2l115.6-74.1c3.8,5.8,8,11.4,12.3,16.8l-70.5,57.9c-3.4-1.4-7.4-0.2-9.3,3c-1,1.7-1.3,3.7-0.9,5.7
		s1.7,3.6,3.4,4.6c1.7,1,3.7,1.4,5.7,0.9c1.9-0.5,3.6-1.7,4.6-3.4c1-1.6,1.3-3.5,0.9-5.4l70.6-57.9c3,3.5,6.1,7,9.3,10.4
		c0.5,0.5,1,1,1.5,1.6L8.2,740.3c-3.5-1.1-7.4,0.5-9,3.9c-1.8,3.7-0.2,8.2,3.5,10c1,0.5,2.1,0.7,3.2,0.7c0.8,0,1.7-0.1,2.5-0.4
		c1.9-0.7,3.4-2,4.3-3.8c0.8-1.7,1-3.7,0.4-5.4L212,546.5c2,2,3.9,3.8,5.7,5.4c1.4,1.3,2.8,2.5,4.2,3.8c2.9,2.5,5.8,4.9,8.8,7.2
		c3,2.3,6,4.6,9.1,6.8c3.7,2.7,7.6,5.2,11.5,7.7l-73.4,121.4c-3.6-0.2-7,2.3-7.8,6c-0.8,4,1.8,8,5.8,8.9c4,0.8,8-1.8,8.9-5.8
		c0.4-1.9,0.1-3.8-0.9-5.4L257.3,581c2.2,1.3,4.5,2.6,6.7,3.8c6.4,3.5,13.1,6.7,19.8,9.6l-12.3,30c-3.6,0.4-6.6,3.3-6.8,7.1
		c-0.2,4.1,3,7.7,7.1,7.9c2,0.1,3.9-0.6,5.4-1.9c1.5-1.3,2.4-3.2,2.4-5.2c0.1-1.9-0.5-3.7-1.7-5.2l12.3-30c3.7,1.4,7.5,2.8,11.6,4.2
		l-35.8,112.9c-3.6,0.6-6.3,3.9-6.2,7.6c0.1,4.1,3.6,7.4,7.7,7.3c2-0.1,3.9-0.9,5.2-2.4c1.4-1.5,2.1-3.4,2-5.4
		c-0.1-1.9-0.8-3.7-2.2-5l35.8-112.9c3,0.9,6.1,1.8,9.1,2.5c0.3,0.1,0.5,0.1,0.8,0.2l-13,54.5c-1.6,0.4-2.9,1.3-4,2.5
		c-1.3,1.6-1.8,3.5-1.6,5.5c0.4,4.1,4.1,7.1,8.2,6.7c4.1-0.4,7.1-4.1,6.7-8.2c-0.2-1.9-1.1-3.6-2.5-4.9l13-54.5
		c16.8,3.7,34,5.6,51.2,5.6c4.2,0,8.4-0.1,12.5-0.3c4-0.2,8.1-0.5,12-0.9c2-0.2,4-0.4,5.9-0.7c9.7-1.2,19.5-3.1,29-5.5
		c1.9-0.5,3.8-1,5.6-1.5c3.7-1.1,7.5-2.2,11.1-3.5c1.8-0.6,3.7-1.3,5.5-1.9c10.8-3.9,21.3-8.7,31.4-14.2c1.4-0.8,2.8-1.6,4.3-2.4
		l0.8-0.4c3.4-2,6.7-4,9.8-5.9c3.3-2.1,6.5-4.3,9.4-6.4c9.2-6.6,18.1-13.9,26.3-21.7c5.5-5.2,10.7-10.7,15.7-16.4
		c2.5-2.9,4.9-5.8,7.2-8.8c11.8-15,21.7-31.3,29.6-48.7c1.6-3.5,3.1-7.1,4.5-10.6c0.7-1.8,1.4-3.6,2-5.4c1.3-3.6,2.6-7.3,3.7-11
		c12.1-38.9,13.9-80.5,5.3-120.3l44.3-10.2c4.3,19.7,6.5,40,6.5,60.2c0,1.9,1.6,3.5,3.5,3.5s3.5-1.6,3.5-3.5
		c0-20.7-2.2-41.5-6.6-61.8l36.4-8.4c1,1.2,2.5,2.1,4.1,2.4c2,0.4,4,0.1,5.7-1c1.7-1.1,2.9-2.8,3.3-4.7c0.4-2,0.1-4-1-5.7
		C705.8,294.9,702.6,293.6,699.5,294.3z M598.8,295.2l42.4-16.3c1.6,4.4,3.2,8.9,4.6,13.4l-7.1,2.1l2,6.7l7.1-2.1
		c1,3.5,2,7.1,2.8,10.7L606.4,320c-1.1-4.5-2.4-9.1-3.8-13.5c-1.2-3.8-2.4-7.5-3.7-11C598.9,295.4,598.9,295.3,598.8,295.2z
		 M588.2,287.4c12,28.4,18.1,58.5,18,89.3v0c-0.2,126-102.8,228.4-228.7,228.4c-0.1,0-0.2,0-0.3,0
		C251.1,605,148.6,502.2,148.8,376.1c0.2-126,102.8-228.4,228.7-228.4c0.1,0,0.2,0,0.3,0C469.8,147.8,552.4,202.7,588.2,287.4z
		 M573.6,175l-5.2,5.2l4.9,5l5.2-5.2c8.3,8.5,16.2,17.6,23.4,27.2L565.3,234c-0.8-1.1-1.6-2.2-2.5-3.2c-2.3-3-4.8-5.9-7.2-8.8
		c-4.9-5.7-10.2-11.2-15.7-16.4c-1.4-1.3-2.8-2.6-4-3.7l9.8-11.2c3.6,0.9,7.3-1,8.7-4.5c1.5-3.8-0.3-8.2-4.1-9.8
		c-3.8-1.5-8.2,0.3-9.8,4.1c-0.7,1.8-0.7,3.7-0.1,5.5l-9.8,11.2c-1.8-1.5-3.6-3.1-5.7-4.7l27.9-35.8
		C560.1,162.5,567,168.6,573.6,175z M625.6,260.8l2.9,6.4l6.8-3.1c1.2,2.7,2.4,5.5,3.5,8.3l-42.4,16.3c-1.3-3.1-2.6-6.2-3.9-9.2
		c-4.9-10.7-10.6-21.2-17-31.1l37.7-25.2c7.2,11,13.6,22.6,19.2,34.6L625.6,260.8z M571.5,242.5c-0.7-1-1.3-1.9-2-2.9l36.6-26.8
		c1.1,1.5,2.1,3,3.2,4.5L571.5,242.5z M547.3,152.4l-27.9,35.7c-1.9-1.5-3.9-2.9-5.9-4.3c-1-0.7-2-1.4-3-2.1l25.2-37.7
		C539.8,146.7,543.6,149.5,547.3,152.4z M530,140.2l-25.1,37.7c-0.2-0.1-0.4-0.3-0.7-0.4c-2.6-1.7-5.3-3.3-8-4.9l22.3-39.5
		C522.5,135.4,526.3,137.7,530,140.2z M495,129l6.3,3.1l3.3-6.6c2.7,1.4,5.3,2.8,7.9,4.2l-22.3,39.5c-0.2-0.1-0.4-0.2-0.7-0.4
		c-7.4-4-15.2-7.7-23-10.9l16.6-42.2c5.1,2.1,10.2,4.4,15.2,6.8L495,129z M476.6,113L460,155.3c-0.6-0.2-1.2-0.5-1.9-0.7
		c-1.8-0.7-3.7-1.3-5.5-1.9c-0.8-0.3-1.5-0.5-2.3-0.8l13.5-43.4C468.1,109.9,472.4,111.4,476.6,113z"/>
	<rect x="593.8" y="273.4" transform="matrix(0.9118 -0.4106 0.4106 0.9118 -60.9422 270.0865)" width="9" height="7"/>
	<rect x="604.8" y="268.5" transform="matrix(0.9118 -0.4106 0.4106 0.9118 -57.9539 274.1437)" width="9" height="7"/>
	<rect x="615.7" y="263.6" transform="matrix(0.9116 -0.411 0.411 0.9116 -54.9611 278.4781)" width="9" height="7"/>
	<path d="M678.3,373.3c-1.9,0-3.5,1.6-3.5,3.5c0,164.3-133.7,298-298,298c-1.9,0-3.5,1.6-3.5,3.5s1.6,3.5,3.5,3.5c0,0,0,0,0,0
		c81.5,0,158-31.7,215.7-89.3c57.6-57.6,89.3-134.2,89.3-215.7C681.8,374.8,680.2,373.3,678.3,373.3z"/>
	<path d="M59.3,381L59.3,381c0.6,0.2,1.2,0.3,1.8,0.3c1.9,0,3.7-1.2,4.5-3.1c0.5-1.2,0.4-2.5-0.1-3.6c-0.5-1.2-1.5-2.1-2.6-2.5
		c-2.5-0.9-5.2,0.3-6.2,2.7c-0.5,1.2-0.4,2.5,0.1,3.6C57.2,379.7,58.1,380.6,59.3,381z"/>
	<path d="M59.4,366.9c0.6,0.3,1.3,0.4,1.9,0.4c0.6,0,1.2-0.1,1.7-0.3c1.2-0.5,2.1-1.4,2.6-2.5c0.5-1.2,0.5-2.5,0.1-3.7
		c-0.5-1.2-1.4-2.1-2.5-2.6c-2.4-1.1-5.2,0.1-6.3,2.5l0,0c0,0,0,0,0,0l0,0C55.9,363.1,57,365.9,59.4,366.9z"/>
	<path d="M60.1,352.9L60.1,352.9c0.7,0.3,1.4,0.5,2.1,0.5c1.8,0,3.5-1,4.3-2.7c0.6-1.1,0.6-2.4,0.2-3.6c-0.4-1.2-1.3-2.2-2.4-2.7
		c-2.4-1.2-5.2-0.2-6.4,2.2C56.8,348.9,57.8,351.8,60.1,352.9z"/>
	<path d="M63.8,339.7c0.2,0,0.4,0,0.6,0c2.6-0.3,4.5-2.7,4.1-5.3s-2.7-4.5-5.3-4.1c-1.3,0.2-2.4,0.8-3.2,1.8c-0.8,1-1.1,2.3-1,3.5
		C59.4,337.9,61.4,339.7,63.8,339.7z"/>
	<path d="M63.4,325.5L63.4,325.5c0.8,0.5,1.6,0.7,2.5,0.7c0.4,0,0.8,0,1.2-0.1c1.2-0.3,2.3-1.1,2.9-2.2c0.7-1.1,0.9-2.4,0.5-3.6
		c-0.3-1.2-1.1-2.3-2.2-2.9c-2.3-1.4-5.2-0.6-6.5,1.6C60.4,321.2,61.1,324.1,63.4,325.5z M64.2,324.2L64.2,324.2L64.2,324.2
		L64.2,324.2z"/>
	<path d="M65.9,312L65.9,312c0.8,0.5,1.7,0.8,2.6,0.8c1.5,0,3.1-0.8,4-2.1c0.7-1.1,0.9-2.3,0.7-3.6c-0.3-1.2-1-2.3-2-3
		c-2.2-1.4-5.1-0.8-6.6,1.3C63.1,307.6,63.7,310.6,65.9,312z"/>
	<path d="M68.8,298.7l0.1,0.1c0,0,0,0,0,0l0.1,0.1c0.8,0.5,1.7,0.8,2.7,0.8c0.3,0,0.5,0,0.8-0.1c1.3-0.2,2.4-0.9,3.1-1.9
		c0.7-1,1.1-2.3,0.9-3.5c-0.2-1.3-0.9-2.4-1.9-3.1c-2.1-1.5-5.1-1.1-6.7,1c-0.8,1-1.1,2.3-0.9,3.5C67.2,296.8,67.8,297.9,68.8,298.7
		z"/>
	<path d="M72.5,285.7L72.5,285.7c0.9,0.7,1.9,1,3,1c0.2,0,0.4,0,0.5,0c1.3-0.1,2.4-0.8,3.2-1.8c1.6-2.1,1.3-5.1-0.8-6.7
		c-2.1-1.6-5.1-1.3-6.7,0.8C70.1,281.1,70.4,284.1,72.5,285.7z"/>
	<path d="M76.7,272.9c0.9,0.8,2,1.1,3.1,1.1c1.3,0,2.7-0.5,3.6-1.6l0,0c1.7-2,1.5-5-0.5-6.7c-2-1.7-5-1.5-6.7,0.5
		c-0.8,1-1.3,2.2-1.2,3.5C75.1,270.9,75.6,272,76.7,272.9L76.7,272.9z"/>
	<path d="M84.6,261.6c1.3,0,2.5-0.5,3.5-1.5c1.8-1.9,1.7-4.9-0.2-6.7c-1.9-1.8-4.9-1.7-6.7,0.2c-1.8,1.9-1.7,4.9,0.2,6.7
		C82.2,261.2,83.4,261.6,84.6,261.6z"/>
	<path d="M89.9,249.4c1.2,0,2.4-0.4,3.3-1.3l0.1-0.1c0.9-0.9,1.4-2.1,1.4-3.3c0-1.3-0.5-2.5-1.4-3.4c-0.9-0.9-2.1-1.4-3.4-1.4
		c-1.3,0-2.5,0.5-3.4,1.4c-1.9,1.8-1.9,4.9-0.1,6.7C87.4,249,88.6,249.4,89.9,249.4z"/>
	<path d="M95.6,237.5c1,0,2.1-0.3,3-1l0.2-0.2c2-1.8,2.1-4.8,0.4-6.7c-1.8-2-4.8-2.1-6.7-0.4c-2,1.8-2.1,4.8-0.4,6.7
		C93,237,94.3,237.5,95.6,237.5z"/>
	<path d="M101.9,225.9c1.1,0,2.1-0.4,3-1.1l0,0c1-0.8,1.6-2,1.7-3.2c0.1-1.3-0.3-2.5-1.1-3.5c-0.8-1-2-1.6-3.2-1.7
		c-1.3-0.1-2.5,0.3-3.5,1.1c-2,1.7-2.3,4.7-0.7,6.7C99.2,225.3,100.5,225.9,101.9,225.9z"/>
	<path d="M108.7,214.6c1,0,2-0.3,2.9-1c2.1-1.6,2.5-4.6,0.9-6.7s-4.6-2.5-6.7-0.9c-2.1,1.6-2.5,4.6-0.9,6.7
		C105.8,213.9,107.2,214.6,108.7,214.6z"/>
	<path d="M115,203.5c0.3,0.1,0.6,0.1,0.9,0.1c1,0,1.9-0.3,2.7-0.8l0.1,0c2.1-1.5,2.7-4.5,1.2-6.6c-1.5-2.2-4.5-2.7-6.6-1.2
		c-2.2,1.5-2.7,4.5-1.2,6.6C112.7,202.6,113.8,203.3,115,203.5z"/>
	<circle cx="123.5" cy="188.1" r="4.8"/>
	<path d="M131.6,182.5c0.8,0,1.6-0.2,2.4-0.6l0,0c1.1-0.6,1.9-1.7,2.2-2.9c0.3-1.2,0.2-2.5-0.5-3.6c-0.6-1.1-1.7-1.9-2.9-2.2
		c-1.2-0.3-2.5-0.2-3.6,0.5c-2.3,1.3-3.1,4.2-1.8,6.5C128.3,181.7,129.9,182.5,131.6,182.5z"/>
	<path d="M140,172.5c0.7,0,1.5-0.2,2.2-0.5c1.1-0.6,2-1.6,2.3-2.8c0.4-1.2,0.3-2.5-0.3-3.6c-0.6-1.1-1.6-2-2.8-2.3
		c-1.2-0.4-2.5-0.3-3.6,0.3c-2.3,1.2-3.2,4.1-2,6.4C136.6,171.6,138.3,172.5,140,172.5z"/>
	<path d="M147.3,162.6c0.5,0.2,1.1,0.3,1.6,0.3c0.7,0,1.4-0.2,2-0.5c1.2-0.5,2-1.5,2.5-2.7c0.4-1.2,0.4-2.5-0.2-3.6s-1.5-2-2.7-2.5
		c-1.2-0.4-2.5-0.4-3.6,0.2c-2.4,1.1-3.4,4-2.3,6.3C145.1,161.3,146.1,162.2,147.3,162.6z"/>
	<path d="M158.2,153.7c0.6,0,1.2-0.1,1.8-0.4l0,0c1.2-0.5,2.1-1.4,2.6-2.6c0.5-1.2,0.5-2.5,0-3.7c-0.5-1.2-1.4-2.1-2.6-2.6
		c-1.2-0.5-2.5-0.5-3.7,0c-2.4,1-3.6,3.8-2.5,6.2C154.5,152.6,156.3,153.7,158.2,153.7z"/>
	<path d="M167.8,144.8c0.5,0,1.1-0.1,1.6-0.3l0,0c1.2-0.4,2.1-1.3,2.7-2.5s0.6-2.5,0.1-3.6c-0.4-1.2-1.3-2.1-2.5-2.7
		c-1.2-0.5-2.5-0.6-3.6-0.1c-2.5,0.9-3.7,3.7-2.8,6.1C164,143.6,165.9,144.8,167.8,144.8z"/>
	<path d="M175.6,135.8c0.7,0.3,1.4,0.5,2.2,0.5c0.5,0,1-0.1,1.5-0.2c1.2-0.4,2.2-1.2,2.8-2.4c0.6-1.1,0.7-2.4,0.3-3.6
		c-0.8-2.5-3.5-3.9-6-3.1c-1.2,0.4-2.2,1.2-2.8,2.4s-0.7,2.4-0.3,3.6C173.6,134.2,174.4,135.2,175.6,135.8z"/>
	<path d="M188.2,128.2c0.4,0,0.8-0.1,1.2-0.2c2.5-0.7,4-3.3,3.4-5.8c-0.7-2.5-3.3-4-5.8-3.4c-2.5,0.7-4,3.3-3.3,5.9
		C184.1,126.9,186.1,128.2,188.2,128.2z"/>
	<path d="M198.8,120.6c0.4,0,0.7,0,1.1-0.1l0,0c2.6-0.6,4.2-3.2,3.6-5.7c-0.3-1.2-1-2.3-2.1-3c-1.1-0.7-2.4-0.9-3.6-0.6
		c-2.6,0.6-4.2,3.2-3.6,5.7C194.7,119.1,196.6,120.6,198.8,120.6z M199.6,119L199.6,119L199.6,119L199.6,119z"/>
	<path d="M209.8,113.4c0.3,0,0.6,0,0.9-0.1c1.3-0.2,2.3-1,3-2s1-2.3,0.7-3.6c-0.5-2.6-3-4.3-5.6-3.8c-2.6,0.5-4.3,3-3.8,5.6
		C205.6,111.8,207.6,113.4,209.8,113.4z"/>
	<path d="M221.2,106.7c0.2,0,0.5,0,0.7,0l0,0c1.3-0.2,2.4-0.9,3.1-1.9s1.1-2.3,0.9-3.5c-0.4-2.6-2.8-4.4-5.4-4
		c-1.3,0.2-2.4,0.9-3.1,1.9s-1.1,2.3-0.9,3.6C216.8,105,218.8,106.7,221.2,106.7z"/>
	<path d="M232.8,100.4c0.2,0,0.3,0,0.5,0c1.3-0.1,2.4-0.8,3.2-1.7c0.8-1,1.2-2.2,1-3.5c-0.1-1.3-0.8-2.4-1.7-3.2
		c-1-0.8-2.2-1.2-3.5-1c-1.3,0.1-2.4,0.8-3.2,1.7c-0.8,1-1.1,2.2-1,3.4l0,0.1C228.3,98.6,230.4,100.4,232.8,100.4z"/>
	<path d="M244.7,94.6c0.1,0,0.2,0,0.3,0h0c2.6-0.2,4.6-2.5,4.4-5.1c-0.1-1.3-0.7-2.4-1.6-3.3c-1-0.8-2.2-1.3-3.5-1.2
		c-2.6,0.2-4.6,2.5-4.4,5.1C240.1,92.7,242.2,94.6,244.7,94.6z"/>
	<path d="M256.9,89.3C256.9,89.3,256.9,89.3,256.9,89.3l0.1,0c2.6-0.1,4.7-2.3,4.6-4.9c-0.1-2.6-2.2-4.7-4.9-4.7
		c-2.6,0.1-4.7,2.2-4.7,4.9C252.1,87.2,254.2,89.3,256.9,89.3z"/>
	<path d="M269.1,84.5L269.1,84.5c0.1,0,0.1,0,0.1,0c2.6,0,4.7-2.1,4.8-4.7c0-1.3-0.4-2.5-1.3-3.4s-2.1-1.4-3.3-1.5
		c-2.6-0.1-4.8,2-4.9,4.7c0,1.3,0.4,2.5,1.3,3.4C266.7,84,267.9,84.5,269.1,84.5z M269.2,83L269.2,83L269.2,83L269.2,83z"/>
	<path d="M281.6,80.3L281.6,80.3c0.2,0,0.2,0,0.3,0c1.2,0,2.3-0.4,3.1-1.2c1-0.8,1.5-2,1.6-3.3c0.1-1.3-0.3-2.5-1.2-3.5
		s-2-1.5-3.3-1.6c-2.6-0.2-4.9,1.8-5.1,4.5c-0.1,1.3,0.3,2.5,1.2,3.5S280.4,80.2,281.6,80.3z"/>
	<path d="M294.4,76.5L294.4,76.5c0.2,0,0.3,0,0.5,0c2.4,0,4.5-1.8,4.7-4.3c0.3-2.6-1.6-5-4.2-5.3c-2.6-0.3-5,1.6-5.3,4.2l0,0.1
		C289.9,73.9,291.8,76.2,294.4,76.5z"/>
	<path d="M307.2,73.2l0.1,0c0.2,0,0.4,0,0.7,0c1,0,2-0.3,2.9-1c1-0.8,1.7-1.9,1.8-3.1s-0.2-2.5-0.9-3.5c-0.8-1-1.9-1.7-3.1-1.8
		c-2.6-0.4-5,1.4-5.4,4c-0.2,1.3,0.1,2.5,0.9,3.5C304.9,72.4,306,73,307.2,73.2z"/>
	<path d="M320.5,70.5L320.5,70.5c0.3,0.1,0.6,0.1,0.9,0.1c2.2,0,4.2-1.6,4.7-3.9c0.5-2.6-1.2-5.1-3.8-5.6c-2.6-0.5-5.1,1.2-5.6,3.8
		c-0.2,1.3,0,2.5,0.7,3.6S319.2,70.3,320.5,70.5z M320.8,69.1L320.8,69.1L320.8,69.1L320.8,69.1z"/>
	<path d="M333.7,68.4L333.7,68.4c0.5,0.1,0.8,0.2,1.2,0.2c2.2,0,4.1-1.5,4.6-3.7c0.6-2.6-1-5.1-3.5-5.7c-2.5-0.6-5.1,1-5.7,3.5
		c-0.3,1.2-0.1,2.5,0.5,3.6C331.5,67.3,332.5,68.1,333.7,68.4z"/>
	<path d="M347.3,66.8L347.3,66.8c0.4,0.1,0.9,0.2,1.3,0.2c0.8,0,1.6-0.2,2.3-0.6c1.1-0.6,1.9-1.6,2.3-2.8c0.7-2.5-0.7-5.2-3.2-5.9
		c-2.5-0.7-5.2,0.7-5.9,3.3C343.4,63.5,344.9,66.1,347.3,66.8z"/>
	<circle cx="362.6" cy="61.3" r="4.8"/>
	<path d="M374.9,65.5L374.9,65.5c0.6,0.2,1.1,0.3,1.7,0.3c1.9,0,3.7-1.2,4.5-3.1c0.5-1.2,0.4-2.5-0.1-3.6c-0.5-1.2-1.5-2.1-2.6-2.5
		c-1.2-0.5-2.5-0.4-3.6,0.1c-1.1,0.5-2,1.4-2.5,2.6l-0.1,0.2C371.3,61.8,372.5,64.5,374.9,65.5z"/>
</g>
</svg>
